<svg width="20" height="15" viewBox="0 0 20 15" fill="none" xmlns="http://www.w3.org/2000/svg">
<path d="M6.33594 14.6641H14.6328C15.4401 14.6641 16.0286 14.4531 16.3984 14.0312C16.7682 13.6094 17.0156 13 17.1406 12.2031L18.2422 4.90625H2.72656L3.83594 12.2031C3.95573 13.0052 4.20052 13.6146 4.57031 14.0312C4.94531 14.4531 5.53385 14.6641 6.33594 14.6641ZM2.36719 3.77344H18.6016C19.0495 3.77344 19.3906 3.64844 19.625 3.39844C19.8646 3.14323 19.9844 2.78906 19.9844 2.33594V1.51562C19.9844 1.0625 19.8646 0.710938 19.625 0.460938C19.3906 0.205729 19.0495 0.078125 18.6016 0.078125H2.36719C1.9401 0.078125 1.60417 0.205729 1.35938 0.460938C1.11458 0.710938 0.992188 1.0625 0.992188 1.51562V2.33594C0.992188 2.78906 1.10938 3.14323 1.34375 3.39844C1.57812 3.64844 1.91927 3.77344 2.36719 3.77344ZM8.23438 12.5078C8.04688 12.5078 7.88281 12.4375 7.74219 12.2969C7.60677 12.1562 7.53906 11.9922 7.53906 11.8047C7.53906 11.6224 7.61198 11.4609 7.75781 11.3203L9.50781 9.54688L7.75781 7.78906C7.61198 7.64323 7.53906 7.47917 7.53906 7.29688C7.53906 7.10938 7.60938 6.95052 7.75 6.82031C7.89062 6.6849 8.05208 6.61719 8.23438 6.61719C8.33333 6.61719 8.41927 6.63542 8.49219 6.67188C8.57031 6.70833 8.64583 6.75781 8.71875 6.82031L10.4922 8.58594L12.2656 6.8125C12.4219 6.67188 12.5833 6.60156 12.75 6.60156C12.9375 6.60156 13.1016 6.67188 13.2422 6.8125C13.3828 6.94792 13.4531 7.10938 13.4531 7.29688C13.4531 7.39583 13.4323 7.48177 13.3906 7.55469C13.3542 7.6276 13.3021 7.70312 13.2344 7.78125L11.4688 9.54688L13.2266 11.3125C13.2891 11.3802 13.3411 11.4531 13.3828 11.5312C13.4245 11.6094 13.4453 11.7005 13.4453 11.8047C13.4453 11.9922 13.375 12.1562 13.2344 12.2969C13.0938 12.4375 12.9323 12.5078 12.75 12.5078C12.651 12.5078 12.5599 12.487 12.4766 12.4453C12.3932 12.4036 12.3177 12.3516 12.25 12.2891L10.4922 10.5234L8.72656 12.2891C8.58594 12.4349 8.42188 12.5078 8.23438 12.5078Z" fill="#7F7F7F"/>
</svg>
