<svg width="17" height="15" viewBox="0 0 17 15" fill="none" xmlns="http://www.w3.org/2000/svg">
<path d="M4.60156 14.6641H13.1641C13.9714 14.6641 14.5885 14.4531 15.0156 14.0312C15.4427 13.6146 15.6562 13.0052 15.6562 12.2031V4.91406H2.10938V12.2031C2.10938 13.0104 2.32292 13.6224 2.75 14.0391C3.17708 14.4557 3.79427 14.6641 4.60156 14.6641ZM6.36719 7.89062C6.17969 7.89062 6.02604 7.83073 5.90625 7.71094C5.79167 7.59115 5.73438 7.4349 5.73438 7.24219V7C5.73438 6.80729 5.79167 6.65365 5.90625 6.53906C6.02604 6.41927 6.17969 6.35938 6.36719 6.35938H11.4062C11.5938 6.35938 11.7474 6.41927 11.8672 6.53906C11.987 6.65365 12.0469 6.80729 12.0469 7V7.24219C12.0469 7.4349 11.987 7.59115 11.8672 7.71094C11.7474 7.83073 11.5938 7.89062 11.4062 7.89062H6.36719ZM2.41406 3.77344H15.3594C15.8281 3.77344 16.1797 3.64323 16.4141 3.38281C16.6536 3.1224 16.7734 2.76042 16.7734 2.29688V1.55469C16.7734 1.09115 16.6536 0.729167 16.4141 0.46875C16.1797 0.208333 15.8281 0.078125 15.3594 0.078125H2.41406C1.96615 0.078125 1.61719 0.208333 1.36719 0.46875C1.11719 0.729167 0.992188 1.09115 0.992188 1.55469V2.29688C0.992188 2.76042 1.10938 3.1224 1.34375 3.38281C1.58333 3.64323 1.9401 3.77344 2.41406 3.77344Z" fill="#7F7F7F"/>
</svg>
