<svg width="295" height="586" viewBox="0 0 295 586" fill="none" xmlns="http://www.w3.org/2000/svg">
<g clip-path="url(#clip0_2019_9718)">
<mask id="mask0_2019_9718" style="mask-type:alpha" maskUnits="userSpaceOnUse" x="0" y="113" width="278" height="460">
<rect x="0.5" y="113.514" width="277" height="458.904" fill="#C4C4C4"/>
</mask>
<g mask="url(#mask0_2019_9718)">
</g>
<g opacity="0.5">
<path d="M10.4244 428.431C10.3331 428.371 10.2523 428.299 10.1658 428.233C10.0748 428.173 9.99432 428.102 9.90778 428.036C9.8167 427.976 9.73593 427.904 9.64952 427.838C9.55831 427.779 9.47768 427.707 9.39114 427.641C9.3002 427.581 9.21956 427.51 9.13302 427.444C9.04208 427.384 8.96172 427.312 8.87532 427.247C8.78411 427.187 8.70348 427.115 8.61694 427.049C8.526 426.99 8.44549 426.918 8.35923 426.852C8.26774 426.793 8.18697 426.721 8.10029 426.655C8.00935 426.595 7.92899 426.523 7.84272 426.458C7.75151 426.398 7.67088 426.326 7.5842 426.26C7.49299 426.2 7.41276 426.129 7.32622 426.063C7.23528 426.004 7.15479 425.932 7.06852 425.866C6.97717 425.806 6.8964 425.734 6.80985 425.668C6.71864 425.609 6.63815 425.537 6.55161 425.471C6.46053 425.411 6.38003 425.34 6.29349 425.274C6.20228 425.214 6.12206 425.142 6.03538 425.077C5.94444 425.017 5.86367 424.945 5.77727 424.879C5.68606 424.82 5.60555 424.748 5.51915 424.682C5.42807 424.622 5.34744 424.551 5.26104 424.485C5.16996 424.425 5.08932 424.353 5.00278 424.287C4.91198 424.228 4.83162 424.156 4.74535 424.091C4.65387 424.031 4.57282 423.959 4.48587 423.892C4.39521 423.833 4.31484 423.762 4.22871 423.696C4.13764 423.636 4.05673 423.564 3.97032 423.498C3.87925 423.439 3.79875 423.367 3.71235 423.301C3.62114 423.242 3.54022 423.17 3.45382 423.104C3.36302 423.044 3.28267 422.973 3.19654 422.907C3.10491 422.847 3.02386 422.775 2.93691 422.709C2.84638 422.65 2.76644 422.578 2.68044 422.513C2.58909 422.453 2.50805 422.381 2.42123 422.315C2.3303 422.255 2.24979 422.184 2.16325 422.118C2.07231 422.058 1.99141 421.986 1.905 421.92C1.81379 421.861 1.73329 421.789 1.64688 421.723C1.55567 421.663 1.47518 421.591 1.38877 421.526C1.29756 421.466 1.21706 421.394 1.13052 421.328C1.03958 421.269 0.959219 421.197 0.872952 421.132C0.781465 421.072 0.700422 421 0.613606 420.933C0.522943 420.874 0.442989 420.803 0.356722 420.737C0.26551 420.677 0.184609 420.605 0.0980676 420.539C0.00685532 420.48 -0.0735098 420.408 -0.160189 420.342C-0.251126 420.282 -0.331757 420.211 -0.418299 420.145C-0.509236 420.085 -0.590014 420.013 -0.676419 419.948C-0.767631 419.888 -0.848124 419.816 -0.934529 419.75C-1.02533 419.691 -1.10569 419.619 -1.19196 419.554C-1.28331 419.494 -1.36422 419.422 -1.45076 419.356C-1.54197 419.296 -1.62247 419.224 -1.70902 419.159C-1.79982 419.099 -1.88045 419.027 -1.96672 418.962C-2.05807 418.902 -2.13884 418.83 -2.22565 418.764C-2.31659 418.704 -2.39695 418.633 -2.48322 418.567C-2.57443 418.507 -2.65507 418.435 -2.74175 418.369C-2.83269 418.31 -2.91332 418.238 -2.99986 418.172C-3.09079 418.112 -3.17156 418.041 -3.25797 417.975C-3.34877 417.915 -3.42913 417.844 -3.5154 417.778C-3.60675 417.718 -3.68766 417.646 -3.7742 417.58C-3.86527 417.521 -3.94578 417.449 -4.03204 417.383C-4.12326 417.324 -4.20388 417.252 -4.29056 417.186C-4.3815 417.126 -4.46228 417.054 -4.54868 416.989C-4.6399 416.929 -4.72039 416.857 -4.80679 416.791C-4.89759 416.732 -4.97795 416.66 -5.06422 416.594C-5.15557 416.535 -5.23634 416.463 -5.32316 416.397C-5.4141 416.337 -5.49474 416.265 -5.58128 416.2C-5.67249 416.14 -5.75271 416.068 -5.83939 416.002C-5.9306 415.943 -6.01109 415.871 -6.0975 415.805C-6.18871 415.746 -6.26908 415.674 -6.35562 415.608C-6.44669 415.548 -6.52732 415.476 -6.61373 415.41C-6.70494 415.351 -6.78544 415.279 -6.87199 415.213C-6.96292 415.153 -7.04355 415.082 -7.1301 415.016C-7.2209 414.956 -7.30126 414.885 -7.38752 414.819C-7.47887 414.759 -7.55978 414.687 -7.64646 414.621C-7.73754 414.562 -7.81803 414.49 -7.90444 414.424C-7.99551 414.364 -8.07588 414.293 -8.16228 414.227C-8.2535 414.167 -8.33412 414.096 -8.4208 414.03C-8.51201 413.97 -8.59252 413.898 -8.67906 413.832C-8.77013 413.773 -8.85035 413.701 -8.93676 413.636C-9.02811 413.576 -9.10902 413.504 -9.19583 413.438C-9.28677 413.378 -9.36686 413.306 -9.45299 413.241C-9.54434 413.181 -9.62484 413.109 -9.71152 413.043C-9.80246 412.984 -9.88309 412.912 -9.96963 412.846C-10.0608 412.786 -10.1413 412.714 -10.2279 412.649C-10.319 412.589 -10.399 412.518 -10.4856 412.452C-10.5771 412.392 -10.6577 412.32 -10.7445 412.254C-10.8356 412.194 -10.9161 412.123 -11.0024 412.057C-11.0936 411.997 -11.1741 411.925 -11.2606 411.86C-11.308 411.829 -11.3518 411.794 -11.398 411.762L-11.4092 411.768C-11.4958 411.833 -11.5785 411.902 -11.6702 411.961C-11.7566 412.026 -11.8389 412.095 -11.9301 412.154C-12.0161 412.219 -12.0981 412.287 -12.1888 412.346C-12.2753 412.411 -12.3578 412.48 -12.449 412.539C-12.5354 412.604 -12.6181 412.673 -12.7093 412.732C-12.7957 412.797 -12.8777 412.866 -12.9686 412.924C-13.0551 412.989 -13.1373 413.058 -13.2285 413.117C-13.3148 413.182 -13.3967 413.251 -13.4875 413.309C-13.5744 413.374 -13.6571 413.443 -13.7485 413.503C-13.8347 413.568 -13.9169 413.636 -14.0076 413.695C-14.094 413.76 -14.1758 413.829 -14.2669 413.887C-14.3537 413.952 -14.4359 414.021 -14.5271 414.08C-14.6138 414.145 -14.6963 414.214 -14.7881 414.273C-14.8741 414.338 -14.9558 414.406 -15.0465 414.465C-15.133 414.53 -15.2154 414.599 -15.3066 414.658C-15.3932 414.723 -15.4753 414.792 -15.5664 414.851C-15.6531 414.916 -15.7356 414.985 -15.8274 415.044C-15.9137 415.109 -15.9957 415.178 -16.0868 415.236C-16.1732 415.301 -16.2555 415.37 -16.3465 415.429C-16.4325 415.494 -16.5147 415.562 -16.6055 415.621C-16.6921 415.686 -16.7747 415.755 -16.8665 415.814C-16.9529 415.879 -17.0351 415.948 -17.1262 416.007C-17.2128 416.072 -17.2952 416.14 -17.3864 416.2C-17.4728 416.265 -17.5548 416.333 -17.6457 416.392C-17.7323 416.457 -17.8143 416.525 -17.9054 416.584C-17.9918 416.649 -18.0741 416.717 -18.165 416.776C-18.2515 416.842 -18.334 416.91 -18.4249 416.969C-18.5114 417.034 -18.5936 417.103 -18.6847 417.162C-18.7713 417.227 -18.8538 417.296 -18.9448 417.355C-19.0314 417.42 -19.1132 417.489 -19.2043 417.547C-19.2906 417.612 -19.3726 417.681 -19.4634 417.739C-19.5502 417.805 -19.6326 417.873 -19.7244 417.933C-19.8108 417.998 -19.8929 418.066 -19.9839 418.125C-20.0702 418.19 -20.152 418.258 -20.243 418.317C-20.3295 418.382 -20.4118 418.45 -20.503 418.51C-20.5894 418.575 -20.6715 418.644 -20.7628 418.703C-20.8492 418.768 -20.9317 418.836 -21.0229 418.895C-21.1092 418.96 -21.1915 419.029 -21.2823 419.087C-21.3685 419.152 -21.4507 419.221 -21.5415 419.279C-21.6283 419.345 -21.7109 419.414 -21.8025 419.473C-21.889 419.538 -21.9711 419.607 -22.0619 419.665C-22.1483 419.73 -22.2303 419.799 -22.3211 419.857C-22.4077 419.922 -22.4902 419.991 -22.5814 420.05C-22.6679 420.115 -22.7503 420.184 -22.8415 420.243C-22.9277 420.308 -23.0095 420.377 -23.1005 420.435C-23.187 420.5 -23.2693 420.569 -23.3605 420.628C-23.4469 420.693 -23.5292 420.762 -23.6202 420.821C-23.707 420.886 -23.7894 420.955 -23.8811 421.014C-23.9007 421.028 -23.9177 421.046 -23.9373 421.06L-23.903 421.087L-75.3003 459.053C-77.0245 460.35 -77.8864 462.529 -77.8858 465.591C-77.9355 466.692 -77.7455 467.791 -77.3289 468.812C-76.9124 469.834 -76.2792 470.753 -75.4728 471.506C-73.9091 472.96 -71.9103 473.86 -69.7839 474.069C-68.7109 474.189 -67.6248 474.095 -66.5889 473.791C-65.5529 473.488 -64.5879 472.981 -63.75 472.302L-11.2117 433.497L42.271 474.598C44.0107 475.978 46.1688 476.726 48.3906 476.719C50.5388 476.753 52.6248 475.999 54.252 474.598C55.1089 473.823 55.779 472.864 56.212 471.794C56.6449 470.723 56.8296 469.569 56.7522 468.417C56.7705 467.238 56.5511 466.067 56.1069 464.974C55.6628 463.881 55.0029 462.889 54.1666 462.056L10.9352 428.764C10.7576 428.664 10.587 428.553 10.4244 428.431V428.431Z" fill="#F26943"/>
<path d="M10.3933 585.344C20.1529 585.344 29.6932 582.455 37.808 577.043C45.9227 571.63 52.2474 563.937 55.9822 554.937C59.717 545.936 60.6942 536.032 58.7902 526.476C56.8862 516.921 52.1865 508.144 45.2855 501.255C38.3844 494.367 29.592 489.675 20.02 487.775C10.448 485.874 0.526348 486.849 -8.49027 490.578C-17.5069 494.306 -25.2135 500.62 -30.6356 508.72C-36.0577 516.82 -38.9517 526.344 -38.9517 536.086C-38.9516 549.15 -33.7528 561.679 -24.4988 570.917C-15.2448 580.155 -2.69374 585.344 10.3933 585.344V585.344ZM10.3933 567.824C4.10515 567.824 -2.04183 565.963 -7.27028 562.475C-12.4987 558.988 -16.5738 554.031 -18.9802 548.232C-21.3866 542.432 -22.0162 536.051 -20.7894 529.894C-19.5626 523.738 -16.5346 518.083 -12.0881 513.644C-7.64168 509.206 -1.97657 506.183 4.1908 504.958C10.3582 503.734 16.7508 504.362 22.5603 506.765C28.3699 509.167 33.3353 513.235 36.8289 518.454C40.3224 523.673 42.187 529.809 42.187 536.086C42.187 540.254 41.3646 544.381 39.7669 548.232C38.1691 552.082 35.8272 555.581 32.8748 558.528C29.9225 561.475 26.4176 563.813 22.5602 565.408C18.7029 567.003 14.5685 567.824 10.3933 567.824Z" fill="#3EC3DB"/>
<path d="M59.5395 306.6C59.5396 293.536 54.3409 281.007 45.087 271.769C35.8331 262.532 23.282 257.342 10.1949 257.342V257.342V257.354C7.8838 257.385 5.6776 258.322 4.05399 259.965C2.43037 261.607 1.52002 263.821 1.52002 266.128C1.52002 268.436 2.43037 270.65 4.05399 272.292C5.6776 273.934 7.8838 274.872 10.1949 274.902V274.862C18.6272 274.862 26.7141 278.206 32.6765 284.158C38.639 290.11 41.9887 298.183 41.9887 306.6C41.9887 315.017 38.639 323.09 32.6765 329.042C26.7141 334.994 18.6272 338.338 10.1949 338.338V338.338V338.31C7.88471 338.342 5.67982 339.28 4.05731 340.922C2.4348 342.564 1.52514 344.778 1.52514 347.084C1.52514 349.391 2.4348 351.604 4.05731 353.246C5.67982 354.888 7.88471 355.827 10.1949 355.858V355.858C16.675 355.858 23.0916 354.584 29.0783 352.109C35.0651 349.633 40.5048 346.005 45.0869 341.431C49.669 336.857 53.3037 331.427 55.7834 325.45C58.2632 319.474 59.5396 313.069 59.5395 306.6V306.6Z" fill="#3EC3DB"/>
<path d="M50.2412 386.485C55.1327 386.485 59.0981 382.527 59.0981 377.644C59.0981 372.761 55.1327 368.803 50.2412 368.803C45.3497 368.803 41.3843 372.761 41.3843 377.644C41.3843 382.527 45.3497 386.485 50.2412 386.485Z" fill="#3EC3DB"/>
<path d="M50.2412 430.185C55.1327 430.185 59.0981 426.226 59.0981 421.343C59.0981 416.46 55.1327 412.502 50.2412 412.502C45.3497 412.502 41.3843 416.46 41.3843 421.343C41.3843 426.226 45.3497 430.185 50.2412 430.185Z" fill="#F26943"/>
<path d="M1.52002 192.28C1.51997 185.811 2.79627 179.406 5.27604 173.43C7.75581 167.453 11.3905 162.023 15.9726 157.449C20.5546 152.875 25.9944 149.247 31.9812 146.771C37.9679 144.296 44.3846 143.022 50.8646 143.021V143.021V143.034C53.1749 143.066 55.3798 144.004 57.0023 145.646C58.6248 147.288 59.5344 149.502 59.5344 151.808C59.5344 154.114 58.6248 156.328 57.0023 157.97C55.3798 159.612 53.1749 160.55 50.8646 160.582V160.542C42.4324 160.542 34.3455 163.886 28.383 169.838C22.4205 175.79 19.0708 183.862 19.0708 192.28C19.0708 200.697 22.4205 208.77 28.383 214.722C34.3455 220.674 42.4324 224.018 50.8646 224.018V224.018V223.99C53.1749 224.022 55.3798 224.96 57.0023 226.602C58.6248 228.244 59.5344 230.458 59.5344 232.764C59.5344 235.07 58.6248 237.284 57.0023 238.926C55.3798 240.568 53.1749 241.506 50.8646 241.538C44.3846 241.538 37.968 240.264 31.9812 237.788C25.9944 235.313 20.5547 231.685 15.9727 227.111C11.3906 222.537 7.7559 217.106 5.27611 211.13C2.79632 205.154 1.52 198.749 1.52002 192.28V192.28Z" fill="#F26943"/>
<path d="M167.864 459.489C167.773 459.549 167.692 459.621 167.606 459.687C167.514 459.746 167.434 459.818 167.348 459.884C167.256 459.943 167.176 460.015 167.089 460.081C166.998 460.141 166.917 460.213 166.831 460.278C166.74 460.338 166.659 460.41 166.573 460.476C166.482 460.535 166.402 460.607 166.315 460.673C166.224 460.733 166.143 460.804 166.057 460.87C165.966 460.93 165.885 461.001 165.799 461.067C165.708 461.127 165.627 461.199 165.54 461.265C165.449 461.325 165.369 461.396 165.283 461.462C165.191 461.522 165.111 461.593 165.024 461.659C164.933 461.719 164.852 461.791 164.766 461.856C164.675 461.916 164.594 461.988 164.508 462.053C164.417 462.113 164.336 462.185 164.25 462.251C164.158 462.311 164.078 462.382 163.991 462.448C163.9 462.508 163.82 462.58 163.733 462.646C163.642 462.705 163.562 462.777 163.475 462.843C163.384 462.903 163.303 462.974 163.217 463.04C163.126 463.1 163.045 463.171 162.959 463.237C162.868 463.297 162.787 463.369 162.701 463.435C162.61 463.494 162.529 463.566 162.443 463.632C162.352 463.692 162.271 463.763 162.185 463.829C162.094 463.889 162.013 463.961 161.926 464.027C161.835 464.086 161.755 464.158 161.668 464.223C161.577 464.283 161.497 464.355 161.41 464.421C161.319 464.481 161.239 464.552 161.152 464.618C161.061 464.678 160.98 464.75 160.894 464.816C160.803 464.875 160.722 464.947 160.636 465.012C160.545 465.072 160.464 465.144 160.377 465.211C160.286 465.27 160.206 465.341 160.12 465.407C160.029 465.467 159.948 465.539 159.861 465.604C159.77 465.664 159.689 465.736 159.603 465.802C159.512 465.861 159.431 465.933 159.345 465.999C159.254 466.059 159.173 466.131 159.087 466.196C158.995 466.256 158.915 466.328 158.828 466.394C158.737 466.454 158.657 466.525 158.57 466.591C158.479 466.651 158.399 466.722 158.313 466.788C158.221 466.848 158.14 466.92 158.053 466.986C157.963 467.045 157.883 467.117 157.796 467.182C157.705 467.242 157.624 467.314 157.538 467.38C157.446 467.44 157.366 467.511 157.28 467.577C157.189 467.637 157.108 467.709 157.021 467.775C156.93 467.834 156.85 467.906 156.763 467.972C156.672 468.031 156.592 468.103 156.505 468.169C156.414 468.229 156.334 468.3 156.248 468.366C156.156 468.426 156.076 468.497 155.989 468.563C155.898 468.623 155.817 468.695 155.731 468.761C155.64 468.821 155.559 468.892 155.473 468.958C155.382 469.018 155.301 469.09 155.214 469.156C155.123 469.215 155.043 469.287 154.957 469.353C154.865 469.412 154.785 469.484 154.698 469.55C154.607 469.61 154.526 469.682 154.44 469.747C154.349 469.807 154.268 469.879 154.182 469.945C154.091 470.004 154.011 470.076 153.924 470.141C153.833 470.201 153.752 470.273 153.665 470.339C153.575 470.399 153.494 470.47 153.408 470.536C153.317 470.596 153.236 470.668 153.149 470.734C153.058 470.793 152.978 470.865 152.891 470.931C152.8 470.991 152.719 471.062 152.633 471.128C152.542 471.188 152.462 471.259 152.375 471.325C152.284 471.385 152.203 471.457 152.117 471.523C152.026 471.582 151.945 471.654 151.859 471.72C151.767 471.78 151.687 471.851 151.6 471.917C151.509 471.977 151.429 472.049 151.342 472.114C151.251 472.174 151.171 472.246 151.084 472.312C150.993 472.371 150.912 472.443 150.826 472.509C150.735 472.569 150.654 472.641 150.568 472.706C150.477 472.766 150.396 472.838 150.31 472.904C150.219 472.963 150.139 473.035 150.052 473.1C149.961 473.16 149.88 473.232 149.793 473.298C149.702 473.358 149.622 473.429 149.535 473.495C149.444 473.555 149.364 473.626 149.278 473.692C149.186 473.752 149.106 473.824 149.019 473.89C148.928 473.949 148.847 474.021 148.761 474.087C148.67 474.147 148.589 474.218 148.503 474.284C148.412 474.344 148.331 474.416 148.244 474.482C148.153 474.541 148.073 474.613 147.987 474.679C147.895 474.738 147.815 474.81 147.728 474.876C147.637 474.936 147.557 475.008 147.47 475.073C147.379 475.133 147.298 475.205 147.212 475.271C147.121 475.33 147.041 475.402 146.954 475.467C146.863 475.527 146.782 475.599 146.695 475.665C146.604 475.725 146.524 475.797 146.437 475.863C146.346 475.922 146.266 475.994 146.179 476.06C146.132 476.091 146.088 476.125 146.042 476.158L146.03 476.152C145.944 476.086 145.861 476.018 145.769 475.958C145.683 475.893 145.601 475.824 145.51 475.765C145.423 475.701 145.341 475.632 145.251 475.573C145.164 475.508 145.082 475.439 144.991 475.38C144.904 475.315 144.822 475.246 144.73 475.187C144.643 475.122 144.561 475.054 144.47 474.995C144.384 474.93 144.302 474.861 144.21 474.802C144.124 474.737 144.042 474.669 143.951 474.61C143.864 474.545 143.782 474.476 143.69 474.417C143.604 474.352 143.522 474.283 143.431 474.225C143.345 474.16 143.263 474.091 143.172 474.033C143.085 473.968 143.003 473.899 142.911 473.84C142.825 473.774 142.742 473.705 142.65 473.646C142.564 473.582 142.482 473.513 142.392 473.454C142.305 473.389 142.223 473.32 142.131 473.261C142.044 473.196 141.962 473.127 141.871 473.068C141.784 473.003 141.702 472.934 141.61 472.875C141.524 472.81 141.442 472.742 141.351 472.683C141.264 472.618 141.182 472.55 141.091 472.491C141.005 472.426 140.923 472.357 140.832 472.299C140.745 472.234 140.663 472.165 140.572 472.105C140.485 472.04 140.403 471.972 140.312 471.914C140.225 471.848 140.143 471.78 140.052 471.721C139.965 471.655 139.883 471.587 139.792 471.529C139.706 471.463 139.624 471.395 139.533 471.337C139.446 471.272 139.364 471.203 139.273 471.145C139.187 471.08 139.104 471.011 139.013 470.952C138.927 470.887 138.844 470.818 138.753 470.759C138.667 470.694 138.584 470.625 138.492 470.566C138.406 470.501 138.324 470.433 138.233 470.374C138.147 470.309 138.065 470.24 137.974 470.182C137.887 470.116 137.805 470.048 137.713 469.989C137.627 469.923 137.544 469.855 137.453 469.796C137.367 469.731 137.285 469.663 137.194 469.604C137.108 469.539 137.026 469.47 136.934 469.411C136.848 469.346 136.766 469.277 136.675 469.218C136.588 469.153 136.505 469.084 136.414 469.025C136.328 468.96 136.246 468.891 136.155 468.833C136.069 468.768 135.987 468.699 135.896 468.641C135.809 468.576 135.726 468.507 135.635 468.447C135.548 468.382 135.466 468.314 135.375 468.255C135.289 468.19 135.207 468.122 135.116 468.063C135.03 467.998 134.947 467.929 134.856 467.87C134.769 467.805 134.687 467.736 134.595 467.677C134.509 467.612 134.427 467.544 134.336 467.485C134.25 467.42 134.167 467.351 134.076 467.292C133.99 467.227 133.908 467.159 133.816 467.1C133.73 467.035 133.647 466.966 133.555 466.907C133.536 466.893 133.519 466.875 133.499 466.861L133.534 466.834L82.1398 428.866C80.4155 427.569 79.5537 425.39 79.5541 422.329C79.5045 421.227 79.6945 420.128 80.1111 419.107C80.5277 418.086 81.1609 417.167 81.9672 416.413C83.5309 414.96 85.5297 414.059 87.6561 413.85C88.729 413.73 89.8151 413.825 90.8511 414.128C91.8871 414.432 92.8522 414.938 93.6901 415.618L146.229 454.422L199.711 413.321C201.451 411.941 203.609 411.193 205.831 411.2C207.979 411.166 210.065 411.92 211.692 413.321C212.549 414.096 213.219 415.055 213.652 416.125C214.085 417.196 214.27 418.35 214.192 419.502C214.211 420.681 213.991 421.852 213.547 422.945C213.103 424.038 212.443 425.03 211.607 425.863L168.375 459.155C168.197 459.255 168.027 459.366 167.864 459.489V459.489Z" fill="#F26943"/>
<path d="M167.864 407.948C167.773 408.007 167.692 408.079 167.606 408.145C167.514 408.205 167.434 408.276 167.348 408.342C167.256 408.402 167.176 408.474 167.089 408.54C166.998 408.6 166.917 408.671 166.831 408.737C166.74 408.797 166.659 408.869 166.573 408.934C166.482 408.994 166.402 409.066 166.315 409.131C166.224 409.191 166.143 409.263 166.057 409.329C165.966 409.388 165.885 409.46 165.799 409.526C165.708 409.585 165.627 409.657 165.54 409.724C165.449 409.783 165.369 409.855 165.283 409.92C165.191 409.98 165.111 410.052 165.024 410.118C164.933 410.178 164.852 410.249 164.766 410.315C164.675 410.375 164.594 410.446 164.508 410.512C164.417 410.572 164.336 410.644 164.249 410.71C164.158 410.769 164.078 410.841 163.991 410.907C163.9 410.967 163.82 411.038 163.733 411.104C163.642 411.164 163.562 411.236 163.475 411.301C163.384 411.361 163.303 411.433 163.217 411.499C163.126 411.558 163.045 411.63 162.959 411.696C162.868 411.756 162.787 411.827 162.701 411.893C162.61 411.953 162.529 412.025 162.443 412.091C162.352 412.15 162.271 412.222 162.185 412.287C162.094 412.347 162.013 412.419 161.926 412.486C161.835 412.545 161.755 412.616 161.668 412.682C161.577 412.742 161.497 412.814 161.41 412.88C161.319 412.939 161.239 413.011 161.152 413.077C161.061 413.136 160.98 413.209 160.894 413.274C160.803 413.334 160.722 413.405 160.636 413.471C160.545 413.531 160.464 413.603 160.377 413.669C160.286 413.728 160.206 413.8 160.12 413.865C160.029 413.925 159.948 413.997 159.861 414.063C159.77 414.123 159.689 414.195 159.603 414.26C159.512 414.32 159.431 414.392 159.345 414.458C159.254 414.517 159.173 414.589 159.087 414.655C158.995 414.715 158.915 414.787 158.828 414.852C158.737 414.912 158.657 414.984 158.57 415.05C158.479 415.109 158.399 415.181 158.313 415.246C158.221 415.306 158.14 415.378 158.053 415.445C157.963 415.504 157.883 415.576 157.796 415.641C157.705 415.701 157.624 415.773 157.538 415.839C157.446 415.898 157.366 415.97 157.28 416.036C157.189 416.096 157.108 416.167 157.021 416.233C156.93 416.293 156.85 416.365 156.763 416.431C156.672 416.49 156.592 416.562 156.505 416.628C156.414 416.687 156.334 416.759 156.248 416.825C156.156 416.884 156.076 416.956 155.989 417.022C155.898 417.082 155.817 417.154 155.731 417.22C155.64 417.279 155.559 417.351 155.473 417.416C155.382 417.476 155.301 417.548 155.214 417.614C155.123 417.674 155.043 417.746 154.957 417.811C154.865 417.871 154.785 417.943 154.698 418.009C154.607 418.068 154.526 418.14 154.44 418.206C154.349 418.266 154.268 418.337 154.182 418.403C154.091 418.463 154.011 418.534 153.924 418.6C153.833 418.66 153.752 418.732 153.665 418.798C153.575 418.857 153.494 418.929 153.408 418.995C153.317 419.054 153.236 419.126 153.149 419.192C153.058 419.252 152.978 419.324 152.891 419.39C152.8 419.449 152.719 419.521 152.633 419.587C152.542 419.646 152.462 419.718 152.375 419.784C152.284 419.843 152.203 419.915 152.117 419.981C152.026 420.041 151.945 420.113 151.859 420.178C151.767 420.238 151.687 420.31 151.6 420.376C151.509 420.435 151.429 420.507 151.342 420.573C151.251 420.633 151.171 420.704 151.084 420.77C150.993 420.83 150.912 420.902 150.826 420.968C150.735 421.027 150.654 421.099 150.568 421.165C150.477 421.225 150.396 421.296 150.31 421.362C150.219 421.422 150.139 421.493 150.052 421.559C149.961 421.619 149.88 421.691 149.793 421.757C149.702 421.817 149.622 421.888 149.535 421.954C149.444 422.014 149.364 422.085 149.277 422.151C149.186 422.211 149.106 422.282 149.019 422.348C148.928 422.408 148.847 422.48 148.761 422.546C148.67 422.605 148.589 422.677 148.503 422.743C148.412 422.803 148.331 422.874 148.244 422.941C148.153 423 148.073 423.072 147.987 423.137C147.895 423.197 147.815 423.269 147.728 423.335C147.637 423.394 147.557 423.466 147.47 423.532C147.379 423.592 147.298 423.664 147.212 423.729C147.121 423.789 147.041 423.86 146.954 423.926C146.863 423.986 146.782 424.058 146.695 424.124C146.604 424.184 146.524 424.256 146.437 424.321C146.346 424.381 146.266 424.453 146.179 424.519C146.132 424.55 146.088 424.584 146.042 424.616L146.03 424.61C145.944 424.545 145.861 424.476 145.769 424.417C145.683 424.352 145.601 424.283 145.51 424.224C145.423 424.159 145.341 424.091 145.251 424.032C145.164 423.967 145.082 423.898 144.991 423.839C144.904 423.774 144.822 423.705 144.73 423.646C144.643 423.581 144.561 423.512 144.47 423.454C144.384 423.389 144.302 423.32 144.21 423.261C144.124 423.196 144.042 423.128 143.951 423.069C143.864 423.004 143.782 422.935 143.69 422.875C143.604 422.811 143.522 422.742 143.431 422.683C143.345 422.618 143.263 422.55 143.172 422.492C143.085 422.426 143.003 422.357 142.911 422.298C142.825 422.233 142.742 422.164 142.65 422.105C142.564 422.04 142.482 421.972 142.392 421.913C142.305 421.848 142.223 421.779 142.131 421.72C142.044 421.655 141.962 421.586 141.871 421.527C141.784 421.462 141.702 421.393 141.61 421.334C141.524 421.269 141.442 421.2 141.351 421.142C141.264 421.077 141.182 421.008 141.091 420.949C141.005 420.884 140.923 420.816 140.832 420.757C140.745 420.692 140.663 420.623 140.572 420.564C140.485 420.499 140.403 420.43 140.312 420.371C140.225 420.306 140.143 420.238 140.052 420.178C139.965 420.113 139.883 420.045 139.792 419.986C139.706 419.921 139.624 419.853 139.533 419.795C139.446 419.73 139.364 419.661 139.273 419.602C139.187 419.537 139.104 419.468 139.013 419.409C138.927 419.344 138.844 419.275 138.753 419.216C138.667 419.151 138.584 419.082 138.492 419.023C138.406 418.958 138.324 418.89 138.233 418.831C138.147 418.766 138.065 418.698 137.974 418.639C137.887 418.574 137.805 418.505 137.713 418.446C137.627 418.38 137.544 418.312 137.453 418.254C137.367 418.189 137.285 418.12 137.194 418.062C137.108 417.997 137.026 417.928 136.934 417.869C136.848 417.803 136.766 417.735 136.675 417.676C136.588 417.611 136.505 417.542 136.414 417.483C136.328 417.418 136.246 417.349 136.155 417.291C136.069 417.226 135.987 417.157 135.896 417.099C135.809 417.033 135.726 416.965 135.635 416.905C135.548 416.84 135.466 416.772 135.375 416.713C135.289 416.648 135.207 416.58 135.116 416.521C135.03 416.456 134.947 416.387 134.856 416.328C134.769 416.263 134.687 416.194 134.595 416.135C134.509 416.07 134.427 416.002 134.336 415.943C134.25 415.878 134.167 415.809 134.076 415.75C133.99 415.685 133.908 415.616 133.816 415.557C133.73 415.492 133.647 415.423 133.555 415.364C133.536 415.35 133.519 415.332 133.499 415.318L133.534 415.291L82.1398 377.325C80.4155 376.028 79.5537 373.849 79.5541 370.787C79.5045 369.686 79.6945 368.587 80.1111 367.565C80.5277 366.544 81.1609 365.625 81.9672 364.872C83.531 363.418 85.5297 362.518 87.6561 362.309C88.729 362.189 89.8152 362.283 90.8511 362.587C91.8871 362.89 92.8522 363.397 93.6901 364.076L146.229 402.881L199.711 361.78C201.451 360.4 203.609 359.652 205.831 359.659C207.979 359.625 210.065 360.379 211.692 361.78C212.549 362.555 213.219 363.514 213.652 364.584C214.085 365.655 214.269 366.81 214.192 367.961C214.21 369.141 213.991 370.311 213.547 371.404C213.103 372.497 212.443 373.489 211.606 374.322L168.375 407.614C168.197 407.714 168.027 407.825 167.864 407.948V407.948Z" fill="#3EC3DB"/>
<path d="M81.7947 518.776C81.0315 518.017 80.4374 517.105 80.0513 516.101C79.6653 515.096 79.4959 514.022 79.5542 512.948C79.5019 511.738 79.705 510.532 80.1505 509.406C80.5959 508.28 81.2737 507.26 82.1397 506.413L118.778 478.195L133.147 488.807L93.6902 519.133C91.8432 520.478 89.5956 521.162 87.3109 521.074C85.2524 521.008 83.2896 520.191 81.7947 518.776V518.776Z" fill="#3EC3DB"/>
<path d="M199.711 518.423L158.875 488.292C158.944 488.237 159.012 488.179 159.087 488.13C159.173 488.064 159.254 487.993 159.345 487.933C159.431 487.867 159.512 487.796 159.603 487.735C159.69 487.669 159.77 487.598 159.861 487.538C159.948 487.472 160.029 487.4 160.12 487.34C160.206 487.275 160.286 487.203 160.377 487.144C160.464 487.078 160.545 487.006 160.636 486.946C160.723 486.88 160.803 486.809 160.894 486.749C160.98 486.683 161.061 486.611 161.152 486.551C161.239 486.486 161.319 486.414 161.41 486.355C161.497 486.289 161.577 486.217 161.669 486.157C161.755 486.091 161.835 486.02 161.926 485.96C162.013 485.894 162.094 485.822 162.185 485.762C162.271 485.696 162.352 485.625 162.443 485.565C162.529 485.5 162.61 485.428 162.701 485.368C162.787 485.302 162.868 485.231 162.959 485.171C163.045 485.105 163.126 485.034 163.217 484.974C163.304 484.908 163.384 484.836 163.475 484.776C163.562 484.71 163.642 484.639 163.733 484.579C163.82 484.513 163.9 484.442 163.992 484.382C164.078 484.316 164.158 484.245 164.25 484.185C164.336 484.119 164.417 484.047 164.508 483.987C164.595 483.921 164.675 483.85 164.766 483.79C164.853 483.724 164.933 483.653 165.024 483.593C165.111 483.527 165.191 483.455 165.283 483.395C165.369 483.33 165.449 483.258 165.54 483.198C165.627 483.132 165.708 483.06 165.799 483.001C165.885 482.935 165.966 482.863 166.057 482.804C166.143 482.738 166.224 482.666 166.315 482.606C166.402 482.54 166.482 482.469 166.573 482.409C166.659 482.343 166.74 482.272 166.831 482.212C166.918 482.146 166.998 482.074 167.089 482.015C167.176 481.949 167.257 481.877 167.348 481.817C167.434 481.751 167.515 481.68 167.606 481.62C167.692 481.554 167.773 481.483 167.864 481.422C168.027 481.3 168.197 481.188 168.374 481.089L173.483 477.154L210.916 504.822C211.975 505.649 212.83 506.707 213.416 507.914C213.961 509.167 214.226 510.524 214.192 511.889C214.253 513.018 214.069 514.148 213.652 515.199C213.236 516.251 212.597 517.201 211.779 517.984C210.133 519.447 208.027 520.291 205.824 520.371C203.621 520.451 201.46 519.763 199.711 518.423H199.711Z" fill="#3EC3DB"/>
<path d="M207.051 307.122C211.943 307.122 215.908 303.164 215.908 298.281C215.908 293.398 211.943 289.439 207.051 289.439C202.16 289.439 198.194 293.398 198.194 298.281C198.194 303.164 202.16 307.122 207.051 307.122Z" fill="#3EC3DB"/>
<path d="M219.138 467.379C219.138 454.315 224.337 441.786 233.591 432.549C242.845 423.311 255.396 418.121 268.483 418.121V418.121V418.134C270.793 418.165 272.998 419.104 274.62 420.746C276.243 422.388 277.153 424.601 277.153 426.908C277.153 429.214 276.243 431.428 274.62 433.07C272.998 434.712 270.793 435.65 268.483 435.681V435.642C260.051 435.642 251.964 438.985 246.001 444.937C240.039 450.889 236.689 458.962 236.689 467.379C236.689 475.797 240.039 483.869 246.001 489.821C251.964 495.773 260.051 499.117 268.483 499.117V499.117V499.09C270.793 499.121 272.998 500.06 274.62 501.702C276.243 503.344 277.153 505.557 277.153 507.864C277.153 510.17 276.243 512.384 274.62 514.026C272.998 515.668 270.793 516.606 268.483 516.637V516.637C262.003 516.637 255.586 515.363 249.599 512.888C243.613 510.412 238.173 506.784 233.591 502.21C229.009 497.636 225.374 492.206 222.894 486.23C220.415 480.253 219.138 473.848 219.138 467.379V467.379Z" fill="#F26943"/>
<path d="M143.303 289.439C149.783 289.439 156.2 290.713 162.186 293.189C168.173 295.664 173.613 299.293 178.195 303.867C182.777 308.441 186.412 313.871 188.892 319.847C191.372 325.823 192.648 332.229 192.648 338.697V338.697H192.636C192.604 341.003 191.664 343.204 190.019 344.824C188.374 346.444 186.157 347.352 183.846 347.352C181.536 347.352 179.318 346.444 177.673 344.824C176.028 343.204 175.088 341.003 175.057 338.697H175.097C175.097 330.28 171.747 322.207 165.785 316.255C159.822 310.303 151.735 306.959 143.303 306.959C134.871 306.959 126.784 310.303 120.821 316.255C114.859 322.207 111.509 330.28 111.509 338.697V338.697H111.537C111.505 341.003 110.565 343.204 108.92 344.824C107.275 346.444 105.058 347.352 102.747 347.352C100.437 347.352 98.2193 346.444 96.5745 344.824C94.9296 343.204 93.9896 341.003 93.958 338.697V338.697C93.958 332.229 95.2344 325.823 97.7142 319.847C100.194 313.871 103.829 308.441 108.411 303.867C112.993 299.293 118.433 295.664 124.419 293.189C130.406 290.714 136.823 289.439 143.303 289.439Z" fill="#F26943"/>
<path d="M259.179 586.666C259.935 582.132 259.688 577.488 258.457 573.06C257.225 568.631 255.039 564.525 252.051 561.029C249.063 557.532 245.346 554.73 241.159 552.818C236.972 550.907 232.417 549.932 227.813 549.962V549.962V550.002C225.503 549.97 223.298 549.032 221.676 547.39C220.053 545.748 219.144 543.534 219.144 541.228C219.144 538.922 220.053 536.708 221.676 535.066C223.298 533.424 225.503 532.486 227.813 532.454V532.441C240.9 532.442 253.451 537.631 262.705 546.869C271.959 556.107 277.158 568.636 277.158 581.7C277.158 583.376 277.071 585.032 276.907 586.666H259.179Z" fill="#3EC3DB"/>
<path d="M178.132 586.666C178.985 582.085 178.817 577.373 177.64 572.864C176.463 568.356 174.307 564.161 171.323 560.578C168.34 556.995 164.602 554.112 160.377 552.133C156.151 550.154 151.541 549.128 146.873 549.128C142.206 549.128 137.596 550.154 133.37 552.133C129.145 554.112 125.407 556.995 122.424 560.578C119.44 564.161 117.283 568.356 116.107 572.864C114.93 577.373 114.762 582.085 115.615 586.666H97.8809C97.0483 579.751 97.6943 572.738 99.7761 566.09C101.858 559.443 105.328 553.311 109.958 548.101C114.588 542.89 120.272 538.719 126.636 535.863C132.999 533.006 139.897 531.529 146.874 531.529C153.851 531.529 160.749 533.006 167.112 535.863C173.476 538.719 179.16 542.89 183.79 548.101C188.419 553.311 191.89 559.443 193.972 566.09C196.053 572.738 196.699 579.751 195.867 586.666H178.132Z" fill="#F26943"/>
</g>
<rect x="0.5" y="4" width="277" height="586" fill="url(#paint0_linear_2019_9718)"/>
</g>
<defs>
<linearGradient id="paint0_linear_2019_9718" x1="139" y1="4" x2="139" y2="590" gradientUnits="userSpaceOnUse">
<stop stop-color="#F1F5FB"/>
<stop offset="1" stop-color="#F1F5FB" stop-opacity="0"/>
</linearGradient>
<clipPath id="clip0_2019_9718">
<rect width="295" height="586" fill="white"/>
</clipPath>
</defs>
</svg>
