<svg width="18" height="15" viewBox="0 0 18 15" fill="none" xmlns="http://www.w3.org/2000/svg">
<path d="M10.0156 14.625C10.2188 14.625 10.4115 14.5807 10.5938 14.4922C10.7812 14.4089 10.9766 14.2708 11.1797 14.0781L17.3672 8.26562C17.5182 8.125 17.625 7.97396 17.6875 7.8125C17.7552 7.65104 17.7891 7.5 17.7891 7.35938C17.7891 7.21354 17.7552 7.0625 17.6875 6.90625C17.625 6.74479 17.5182 6.59375 17.3672 6.45312L11.1797 0.6875C10.9557 0.473958 10.7578 0.322917 10.5859 0.234375C10.4193 0.140625 10.2318 0.09375 10.0234 0.09375C9.71615 0.09375 9.46094 0.200521 9.25781 0.414062C9.0599 0.622396 8.96094 0.875 8.96094 1.17188V3.96875H8.76562C7.41146 3.96875 6.23698 4.17969 5.24219 4.60156C4.2526 5.01823 3.43229 5.625 2.78125 6.42188C2.13542 7.21875 1.65365 8.18229 1.33594 9.3125C1.01823 10.4375 0.859375 11.7083 0.859375 13.125C0.859375 13.6094 0.950521 13.974 1.13281 14.2188C1.32031 14.4688 1.54948 14.5938 1.82031 14.5938C2.02344 14.5938 2.21615 14.5495 2.39844 14.4609C2.58594 14.3724 2.75521 14.1875 2.90625 13.9062C3.31771 13.1354 3.79688 12.5208 4.34375 12.0625C4.89062 11.6042 5.52604 11.2734 6.25 11.0703C6.97396 10.8672 7.8125 10.7656 8.76562 10.7656H8.96094V13.5859C8.96094 13.8828 9.0599 14.1302 9.25781 14.3281C9.46094 14.526 9.71354 14.625 10.0156 14.625Z" fill="#7F7F7F"/>
</svg>
