<svg width="14" height="12" viewBox="0 0 14 12" fill="none"
                                                    xmlns="http://www.w3.org/2000/svg">
                                                    <g clip-path="url(#clip0_222_279)">
                                                        <path
                                                            d="M7.91995 5.7598L9.28479 7.31988L11.1202 8.49265L11.4395 5.76965L11.1202 3.10806L9.24962 4.13832L7.91995 5.7598Z"
                                                            fill="#00832D" />
                                                        <path
                                                            d="M0 8.23921V10.5596C0 11.0894 0.430063 11.5196 0.959984 11.5196H3.28037L3.76086 9.76636L3.28037 8.23921L1.68842 7.75873L5.46875e-05 8.23921H0Z"
                                                            fill="#0066DA" />
                                                        <path
                                                            d="M3.28038 0L0 3.28037L1.68853 3.75971L3.28038 3.28037L3.75211 1.77401L3.28038 0Z"
                                                            fill="#E94235" />
                                                        <path
                                                            d="M6.10352e-05 8.24027H3.28038V3.28033H6.10352e-05V8.24027Z"
                                                            fill="#2684FC" />
                                                        <path
                                                            d="M13.2157 1.38895L11.1201 3.10811V8.49264L13.2244 10.2185C13.5394 10.4652 14.0002 10.2403 14.0002 9.83992V1.75984C14.0002 1.35499 13.5284 1.13121 13.2157 1.38901"
                                                            fill="#00AC47" />
                                                        <path
                                                            d="M7.91994 5.7598V8.23922H3.28036V11.5196H10.1603C10.6902 11.5196 11.1202 11.0894 11.1202 10.5596V8.49264L7.91994 5.7598Z"
                                                            fill="#00AC47" />
                                                        <path
                                                            d="M10.1603 0H3.28036V3.28038H7.91994V5.7598L11.1203 3.108V0.960039C11.1203 0.430117 10.6902 5.46875e-05 10.1603 5.46875e-05"
                                                            fill="#FFBA00" />
                                                    </g>
                                                    <defs>
                                                        <clipPath id="clip0_222_279">
                                                            <rect width="14" height="11.5391" fill="white" />
                                                        </clipPath>
                                                    </defs>
                                                </svg>