<svg width="900" height="900" viewBox="0 0 900 900" fill="none" xmlns="http://www.w3.org/2000/svg">
<g clip-path="url(#clip0_8946_10832)">
<path d="M900 0H0V900H900V0Z" fill="#EE3B25"/>
<path d="M361.8 326.6L335.2 475.5C334.6 478.5 333.3 481 331.2 483.1C329.1 485.2 326.6 486.6 323.7 487.2C320.7 487.7 317.8 487.4 315.1 486.2C312.4 485 310.3 483.2 308.7 480.7L255.9 394L203 480.7C201.7 482.8 200 484.5 197.8 485.7C195.6 486.9 193.3 487.5 190.8 487.5C187.3 487.5 184.3 486.4 181.6 484.2C178.9 482 177.3 479.1 176.7 475.6L150 326.6H179.3L198.4 431.6L243.8 359.1C245.1 357 246.8 355.3 249 354.1C251.2 352.9 253.5 352.3 256 352.3C258.5 352.3 260.8 352.9 263 354.1C265.1 355.3 266.9 356.9 268.3 359.1L313.5 431.6L332.6 326.6H361.8Z" fill="white"/>
<path d="M509 405.4C509 409.4 508.3 413.7 506.9 418.3C505.5 422.9 503.2 427.2 500.1 431.2C497 435.2 492.9 438.5 487.8 441.1C482.7 443.8 476.6 445.1 469.3 445.1H417.3V417.7H469.3C473.2 417.7 476.2 416.5 478.4 414.1C480.5 411.7 481.6 408.7 481.6 405.2C481.6 401.4 480.4 398.5 478 396.3C475.6 394.2 472.7 393.1 469.3 393.1H417.3C413.4 393.1 410.4 394.3 408.2 396.7C406.1 399.1 405 402.1 405 405.6V445.8C405 449.6 406.2 452.6 408.6 454.8C411 456.9 414 458 417.5 458H469.3V485.5H417.3C413.3 485.5 409 484.8 404.4 483.4C399.8 482 395.5 479.7 391.5 476.6C387.5 473.5 384.2 469.4 381.6 464.3C378.9 459.2 377.6 453.1 377.6 445.8V405.3C377.6 401.3 378.3 397 379.7 392.4C381.1 387.8 383.4 383.5 386.5 379.5C389.6 375.5 393.7 372.2 398.8 369.6C403.9 366.9 410 365.6 417.3 365.6H469.3C473.3 365.6 477.6 366.3 482.2 367.7C486.8 369.1 491.1 371.4 495.1 374.5C499.1 377.6 502.4 381.7 505 386.8C507.6 392 509 398.2 509 405.4Z" fill="white"/>
<path d="M687.5 485.6H658.7V446.6H557.4V485.6H528.6V406.1C528.6 394.5 530.6 383.8 534.6 374.1C538.6 364.3 544.1 356 551.2 348.9C558.3 341.9 566.7 336.4 576.4 332.5C586.1 328.6 596.6 326.6 608.1 326.6H673C675 326.6 676.9 327 678.7 327.7C680.5 328.4 682 329.5 683.4 330.8C684.7 332.1 685.8 333.7 686.5 335.5C687.2 337.3 687.6 339.2 687.6 341.2V485.6H687.5ZM557.4 417.7H658.7V355.4H608C607.1 355.4 605.2 355.5 602.4 355.8C599.6 356.1 596.3 356.7 592.5 357.7C588.8 358.7 584.8 360.3 580.7 362.5C576.6 364.6 572.8 367.6 569.3 371.4C565.8 375.2 563 379.9 560.7 385.5C558.4 391.2 557.3 398 557.3 406.1V417.7H557.4Z" fill="white"/>
<path d="M750 485.6H721.2V326.6H750V485.6Z" fill="white"/>
<path d="M93.3001 525.2H76.5001V559.6H68.9001V525.2H52.1001V517.6H93.3001V525.2Z" fill="white"/>
<path d="M128.8 538.4C128.8 539.5 128.6 540.6 128.2 541.8C127.8 543 127.2 544.2 126.4 545.2C125.6 546.2 124.5 547.1 123.1 547.8C121.8 548.5 120.1 548.9 118.2 548.9H104.5V541.7H118.2C119.2 541.7 120 541.4 120.6 540.7C121.2 540.1 121.4 539.3 121.4 538.3C121.4 537.3 121.1 536.5 120.4 536C119.8 535.4 119 535.2 118.1 535.2H104.4C103.4 535.2 102.6 535.5 102 536.2C101.4 536.8 101.2 537.6 101.2 538.6V549.2C101.2 550.2 101.5 551 102.2 551.6C102.8 552.2 103.6 552.4 104.6 552.4H118.3V559.7H104.6C103.5 559.7 102.4 559.5 101.2 559.1C100 558.7 98.8001 558.1 97.8001 557.3C96.8001 556.5 95.9001 555.4 95.2001 554C94.5001 552.6 94.1001 551 94.1001 549.1V538.4C94.1001 537.3 94.3001 536.2 94.7001 535C95.1001 533.8 95.7001 532.6 96.5001 531.6C97.3001 530.6 98.4001 529.7 99.8001 529C101.1 528.3 102.8 527.9 104.7 527.9H118.4C119.5 527.9 120.6 528.1 121.8 528.5C123 528.9 124.2 529.5 125.2 530.3C126.2 531.1 127.1 532.2 127.8 533.6C128.5 535 128.8 536.5 128.8 538.4Z" fill="white"/>
<path d="M164.6 559.6H143.9C142.8 559.6 141.7 559.4 140.4 559C139.1 558.6 138 558 136.9 557.2C135.8 556.4 134.9 555.2 134.2 553.9C133.5 552.5 133.1 550.9 133.1 548.9V538.6C133.1 537.9 133.2 537.1 133.3 536.3C133.5 535.5 133.7 534.7 134.1 533.9C134.5 533.1 134.9 532.4 135.5 531.6C136.1 530.8 136.7 530.2 137.5 529.7C138.3 529.2 139.2 528.7 140.2 528.4C141.2 528.1 142.4 527.9 143.7 527.9H164.4V535.5H143.7C142.7 535.5 141.9 535.8 141.4 536.3C140.9 536.8 140.6 537.6 140.6 538.6V548.9C140.6 549.9 140.9 550.7 141.4 551.2C141.9 551.7 142.7 552 143.7 552H164.3V559.6H164.6Z" fill="white"/>
<path d="M178.6 559.6H171V514.5H178.6V559.6ZM206.1 559.6H198.5V538.6C198.5 537.6 198.2 536.8 197.7 536.3C197.2 535.8 196.4 535.5 195.4 535.5H181.7V528H195.4C196.1 528 196.9 528.1 197.7 528.2C198.5 528.4 199.3 528.6 200.1 529C200.9 529.4 201.6 529.8 202.4 530.4C203.1 531 203.8 531.6 204.3 532.4C204.8 533.2 205.3 534.1 205.6 535.1C205.9 536.1 206.1 537.3 206.1 538.6V559.6Z" fill="white"/>
<path d="M248.2 559.6H240.6V542C240.6 541 240.4 540.1 240.1 539.3C239.8 538.5 239.3 537.8 238.7 537.3C238.1 536.8 237.4 536.3 236.6 536C235.8 535.7 235 535.5 234 535.5H220.7V559.6H213.1V531.7C213.1 531.2 213.2 530.7 213.4 530.2C213.6 529.7 213.9 529.3 214.2 529C214.5 528.7 215 528.4 215.4 528.2C215.8 528 216.4 527.9 216.9 527.9H234.1C235.1 527.9 236.1 528 237.1 528.2C238.2 528.4 239.2 528.8 240.3 529.2C241.3 529.7 242.3 530.3 243.3 531C244.2 531.7 245.1 532.6 245.8 533.7C246.5 534.8 247.1 536 247.5 537.3C247.9 538.7 248.1 540.2 248.1 541.9V559.6H248.2Z" fill="white"/>
<path d="M289.3 548.9C289.3 550.2 289.1 551.4 288.8 552.4C288.5 553.4 288 554.4 287.5 555.2C287 556 286.3 556.7 285.6 557.2C284.9 557.7 284.1 558.2 283.3 558.6C282.5 559 281.7 559.2 280.9 559.4C280.1 559.6 279.3 559.6 278.6 559.6H264.9C263.8 559.6 262.7 559.4 261.4 559C260.1 558.6 259 558 257.9 557.2C256.8 556.4 255.9 555.2 255.2 553.9C254.5 552.5 254.1 550.9 254.1 548.9V538.6C254.1 536.6 254.5 535 255.2 533.6C255.9 532.2 256.8 531.1 257.9 530.3C259 529.5 260.1 528.8 261.4 528.5C262.6 528.1 263.8 527.9 264.9 527.9H278.6C280.6 527.9 282.2 528.3 283.6 529C285 529.7 286.1 530.6 286.9 531.7C287.7 532.8 288.4 533.9 288.7 535.2C289 536.5 289.3 537.6 289.3 538.7V548.9ZM281.7 538.7C281.7 537.6 281.4 536.9 280.9 536.4C280.4 535.9 279.6 535.6 278.6 535.6H264.9C263.9 535.6 263.1 535.9 262.6 536.4C262.1 536.9 261.8 537.7 261.8 538.7V549C261.8 550 262.1 550.8 262.6 551.3C263.1 551.8 263.9 552.1 264.9 552.1H278.6C279.6 552.1 280.4 551.8 280.9 551.3C281.4 550.8 281.7 550 281.7 549V538.7Z" fill="white"/>
<path d="M309.7 559.6H306.3C305.2 559.6 304 559.4 302.8 559C301.6 558.6 300.4 558 299.3 557.2C298.2 556.4 297.3 555.2 296.6 553.9C295.9 552.6 295.5 550.9 295.5 548.9V514.5H303.1V548.9C303.1 549.8 303.4 550.6 304 551.1C304.6 551.6 305.3 551.9 306.2 551.9H309.6V559.6H309.7Z" fill="white"/>
<path d="M349 548.9C349 550.2 348.8 551.4 348.5 552.4C348.2 553.4 347.7 554.4 347.2 555.2C346.7 556 346 556.7 345.3 557.2C344.6 557.7 343.8 558.2 343 558.6C342.2 559 341.4 559.2 340.6 559.4C339.8 559.6 339 559.6 338.3 559.6H324.6C323.5 559.6 322.4 559.4 321.1 559C319.8 558.6 318.7 558 317.6 557.2C316.5 556.4 315.6 555.2 314.9 553.9C314.2 552.6 313.8 550.9 313.8 548.9V538.6C313.8 536.6 314.2 535 314.9 533.6C315.6 532.2 316.5 531.1 317.6 530.3C318.7 529.5 319.8 528.8 321.1 528.5C322.4 528.2 323.5 527.9 324.6 527.9H338.3C340.3 527.9 341.9 528.3 343.3 529C344.7 529.7 345.8 530.6 346.6 531.7C347.4 532.8 348.1 533.9 348.4 535.2C348.7 536.5 349 537.6 349 538.7V548.9ZM341.4 538.7C341.4 537.6 341.1 536.9 340.6 536.4C340.1 535.9 339.3 535.6 338.3 535.6H324.6C323.6 535.6 322.8 535.9 322.3 536.4C321.8 536.9 321.5 537.7 321.5 538.7V549C321.5 550 321.8 550.8 322.3 551.3C322.8 551.8 323.6 552.1 324.6 552.1H338.3C339.3 552.1 340.1 551.8 340.6 551.3C341.1 550.8 341.4 550 341.4 549V538.7Z" fill="white"/>
<path d="M390 562.7C390 564 389.8 565.2 389.5 566.2C389.2 567.2 388.7 568.2 388.2 569C387.7 569.8 387 570.5 386.3 571C385.6 571.5 384.8 572 384 572.4C383.2 572.8 382.4 573 381.6 573.2C380.8 573.4 380 573.4 379.3 573.4H365.6V565.8H379.3C380.3 565.8 381.1 565.5 381.6 565C382.1 564.5 382.4 563.7 382.4 562.7V538.6C382.4 537.6 382.1 536.8 381.6 536.3C381.1 535.8 380.3 535.5 379.3 535.5H365.6C364.7 535.5 363.9 535.8 363.4 536.4C362.9 537 362.6 537.7 362.6 538.6V548.9C362.6 549.9 362.9 550.7 363.4 551.2C363.9 551.7 364.7 552 365.7 552H379.4V559.6H365.7C365 559.6 364.2 559.5 363.4 559.4C362.6 559.3 361.8 559 361 558.6C360.2 558.2 359.5 557.8 358.7 557.2C357.9 556.6 357.3 556 356.8 555.2C356.3 554.4 355.8 553.5 355.5 552.4C355.2 551.3 355 550.2 355 548.9V538.6C355 537.9 355.1 537.1 355.2 536.3C355.3 535.5 355.6 534.7 356 533.9C356.4 533.1 356.8 532.4 357.4 531.6C358 530.8 358.6 530.2 359.4 529.7C360.2 529.2 361.1 528.7 362.1 528.4C363.1 528.1 364.3 527.9 365.6 527.9H379.3C380 527.9 380.8 528 381.6 528.1C382.4 528.2 383.2 528.5 384 528.9C384.8 529.3 385.5 529.7 386.3 530.3C387.1 530.9 387.7 531.5 388.2 532.3C388.7 533.1 389.2 534 389.5 535C389.8 536 390 537.2 390 538.5V562.7Z" fill="white"/>
<path d="M421.2 559.6H407.5C406.4 559.6 405.2 559.4 404 559C402.8 558.6 401.6 558 400.5 557.2C399.4 556.4 398.5 555.2 397.8 553.9C397.1 552.6 396.7 550.9 396.7 548.9V527.9H404.3V548.9C404.3 549.9 404.6 550.7 405.1 551.2C405.6 551.7 406.4 552 407.4 552H421.1V559.6H421.2ZM431.9 562.7C431.9 564 431.7 565.2 431.4 566.2C431.1 567.2 430.6 568.2 430.1 569C429.6 569.8 428.9 570.5 428.2 571C427.5 571.5 426.7 572 425.9 572.4C425.1 572.8 424.3 573 423.5 573.2C422.7 573.4 421.9 573.4 421.2 573.4H407.5V565.8H421.2C422.2 565.8 423 565.5 423.5 565C424 564.5 424.3 563.7 424.3 562.7V528H431.9V562.7Z" fill="white"/>
<path d="M493.1 548.9H489.7L489.6 549C489.6 550.3 489.4 551.4 489.1 552.4C488.8 553.4 488.4 554.3 487.8 555C487.2 555.7 486.7 556.4 486 556.9C485.3 557.4 484.6 557.9 483.8 558.2C483 558.5 482.3 558.8 481.5 558.9C480.7 559 480 559.1 479.3 559.1H469C467.2 559.1 465.6 558.8 464.4 558.1C463.2 557.4 462.1 556.6 461.2 555.6C460.3 554.6 459.8 553.5 459.4 552.3C459 551.1 458.8 550 458.7 549V545.5C458.7 544 458.9 542.6 459.4 541.5C459.9 540.4 460.4 539.4 461.1 538.6C460.3 537.5 459.6 536.4 459.3 535.2C459 534 458.7 532.8 458.7 531.7C458.7 529.8 459 528.2 459.7 526.9C460.4 525.6 461.2 524.5 462.3 523.7C463.4 522.9 464.5 522.3 465.7 521.9C466.9 521.5 468 521.4 469.1 521.4H486.3V528.3H469C468.5 528.3 468 528.4 467.6 528.5C467.2 528.6 466.8 528.9 466.5 529.2C466.2 529.5 466 529.9 465.8 530.3C465.6 530.7 465.6 531.2 465.6 531.7C465.6 532.8 465.9 533.7 466.5 534.3C467.1 534.9 467.9 535.2 469 535.2H479.3V542.1H469C467.9 542.1 467.1 542.4 466.5 543.1C465.9 543.8 465.6 544.6 465.6 545.6V548.9C465.6 550 465.9 550.8 466.6 551.5C467.3 552.2 468.1 552.5 469 552.5H479.3C480.4 552.5 481.2 552.2 481.8 551.5C482.4 550.8 482.7 550 482.7 549C482.7 548.2 482.8 547.3 483.1 546.5C483.4 545.7 483.8 544.9 484.4 544.3C485 543.7 485.7 543.1 486.6 542.7C487.5 542.3 488.4 542.1 489.5 542.1H493V548.9H493.1Z" fill="white"/>
<path d="M557.3 559.6H529.8C528.7 559.6 527.6 559.4 526.3 559C525 558.6 523.9 558 522.8 557.2C521.7 556.4 520.8 555.2 520.1 553.9C519.4 552.6 519 550.9 519 548.9V521.4C519 520.9 519.1 520.4 519.3 519.9C519.5 519.4 519.8 519 520.1 518.7C520.4 518.4 520.8 518.1 521.3 517.9C521.8 517.7 522.3 517.6 522.8 517.6H557.1V525.2H526.6V548.9C526.6 549.9 526.9 550.7 527.4 551.2C527.9 551.7 528.7 552 529.7 552H557.1V559.6H557.3ZM553.8 542.5H529.7V534.8H553.8V542.5Z" fill="white"/>
<path d="M598.2 548.9C598.2 550.2 598 551.4 597.7 552.4C597.4 553.4 596.9 554.4 596.4 555.2C595.9 556 595.2 556.7 594.5 557.2C593.8 557.7 593 558.2 592.2 558.6C591.4 559 590.6 559.2 589.8 559.4C589 559.6 588.2 559.6 587.5 559.6H573.8C572.5 559.6 571.3 559.4 570.3 559.1C569.3 558.8 568.4 558.3 567.6 557.8C566.8 557.3 566.1 556.6 565.6 555.9C565.1 555.2 564.6 554.4 564.2 553.6C563.8 552.8 563.6 552 563.4 551.2C563.2 550.4 563.2 549.6 563.2 548.9V538.6C563.2 536.6 563.6 535 564.3 533.6C565 532.2 565.9 531.1 567 530.3C568.1 529.5 569.2 528.8 570.5 528.5C571.8 528.2 572.9 527.9 574 527.9H587.7V535.5H574C573 535.5 572.2 535.8 571.7 536.3C571.2 536.8 570.9 537.6 570.9 538.6V548.9C570.9 549.9 571.2 550.7 571.7 551.2C572.2 551.7 573 552 574 552H587.7C588.7 552 589.5 551.7 590 551.2C590.5 550.7 590.8 549.9 590.8 548.9V514.5H598.4V548.9H598.2Z" fill="white"/>
<path d="M640 555.8C640 556.3 639.9 556.9 639.7 557.3C639.5 557.7 639.2 558.2 638.9 558.5C638.6 558.8 638.2 559.1 637.7 559.3C637.2 559.5 636.7 559.6 636.2 559.6H619C618.1 559.6 617.1 559.5 616 559.3C614.9 559.1 613.9 558.7 612.9 558.3C611.9 557.9 610.9 557.2 609.9 556.5C608.9 555.8 608.1 554.9 607.4 553.8C606.7 552.7 606.1 551.5 605.7 550.2C605.3 548.9 605 547.3 605 545.6V528H612.6V545.6C612.6 546.6 612.8 547.5 613.1 548.3C613.4 549.1 613.9 549.8 614.5 550.3C615.1 550.8 615.8 551.3 616.6 551.6C617.4 551.9 618.2 552.1 619.2 552.1H632.5V528H640.1V555.8H640Z" fill="white"/>
<path d="M677.9 559.6H657.2C656.1 559.6 655 559.4 653.7 559C652.4 558.6 651.3 558 650.2 557.2C649.1 556.4 648.2 555.2 647.5 553.9C646.8 552.6 646.4 550.9 646.4 548.9V538.6C646.4 537.9 646.5 537.1 646.6 536.3C646.7 535.5 647 534.7 647.4 533.9C647.8 533.1 648.2 532.4 648.8 531.6C649.4 530.8 650 530.2 650.8 529.7C651.6 529.2 652.5 528.7 653.5 528.4C654.5 528.1 655.7 527.9 657 527.9H677.7V535.5H657C656 535.5 655.2 535.8 654.7 536.3C654.2 536.8 653.9 537.6 653.9 538.6V548.9C653.9 549.9 654.2 550.7 654.7 551.2C655.2 551.7 656 552 657 552H677.6V559.6H677.9Z" fill="white"/>
<path d="M716.7 549.1C716.7 550.2 716.5 551.3 716.1 552.5C715.7 553.7 715.1 554.9 714.3 555.9C713.5 556.9 712.4 557.8 711 558.5C709.6 559.2 708 559.6 706.1 559.6H692.4C691.3 559.6 690.2 559.4 689 559C687.8 558.6 686.6 558 685.6 557.2C684.6 556.4 683.7 555.3 683 553.9C682.3 552.5 681.9 550.9 681.9 549C681.9 547.9 682.1 546.8 682.5 545.6C682.9 544.4 683.5 543.2 684.3 542.2C685.1 541.2 686.2 540.3 687.6 539.6C689 538.9 690.6 538.5 692.5 538.5H706.2V545.8H692.5C691.5 545.8 690.7 546.1 690.1 546.8C689.5 547.5 689.3 548.2 689.3 549.2C689.3 550.2 689.6 551 690.3 551.5C691 552 691.7 552.3 692.6 552.3H706.3C707.3 552.3 708.1 552 708.7 551.4C709.3 550.8 709.5 550 709.5 549.1V538.5C709.5 537.5 709.2 536.7 708.6 536.1C708 535.5 707.2 535.2 706.3 535.2H689.6V528H706.3C707.4 528 708.5 528.2 709.7 528.6C710.9 529 712.1 529.6 713.1 530.4C714.1 531.2 715 532.3 715.7 533.7C716.4 535.1 716.8 536.7 716.8 538.6V549.1H716.7Z" fill="white"/>
<path d="M751.8 535.6H738.5V559.7H730.8V535.6H720.9V528H730.8V517.7H738.5V528H751.8V535.6Z" fill="white"/>
<path d="M764.6 521.5H757V514.6H764.6V521.5ZM764.6 559.6H757V528H764.6V559.6Z" fill="white"/>
<path d="M806.3 548.9C806.3 550.2 806.1 551.4 805.8 552.4C805.5 553.4 805 554.4 804.5 555.2C804 556 803.3 556.7 802.6 557.2C801.9 557.7 801.1 558.2 800.3 558.6C799.5 559 798.7 559.2 797.9 559.4C797.1 559.6 796.3 559.6 795.6 559.6H781.9C780.8 559.6 779.7 559.4 778.4 559C777.1 558.6 776 558 774.9 557.2C773.8 556.4 772.9 555.2 772.2 553.9C771.5 552.6 771.1 550.9 771.1 548.9V538.6C771.1 536.6 771.5 535 772.2 533.6C772.9 532.2 773.8 531.1 774.9 530.3C776 529.5 777.1 528.8 778.4 528.5C779.7 528.2 780.8 527.9 781.9 527.9H795.6C797.6 527.9 799.2 528.3 800.6 529C802 529.7 803.1 530.6 803.9 531.7C804.7 532.8 805.4 533.9 805.7 535.2C806 536.5 806.3 537.6 806.3 538.7V548.9ZM798.7 538.7C798.7 537.6 798.4 536.9 797.9 536.4C797.4 535.9 796.6 535.6 795.6 535.6H782C781 535.6 780.2 535.9 779.7 536.4C779.2 536.9 778.9 537.7 778.9 538.7V549C778.9 550 779.2 550.8 779.7 551.3C780.2 551.8 781 552.1 782 552.1H795.7C796.7 552.1 797.5 551.8 798 551.3C798.5 550.8 798.8 550 798.8 549V538.7H798.7Z" fill="white"/>
<path d="M847.9 559.6H840.3V542C840.3 541 840.1 540.1 839.8 539.3C839.5 538.5 839 537.8 838.4 537.3C837.8 536.8 837.1 536.3 836.3 536C835.5 535.7 834.7 535.5 833.7 535.5H820.4V559.6H812.8V531.7C812.8 531.2 812.9 530.7 813.1 530.2C813.3 529.7 813.6 529.3 813.9 529C814.2 528.7 814.7 528.4 815.1 528.2C815.5 528 816.1 527.9 816.6 527.9H833.8C834.8 527.9 835.8 528 836.8 528.2C837.8 528.4 838.9 528.8 840 529.2C841.1 529.6 842 530.3 843 531C844 531.7 844.8 532.6 845.5 533.7C846.2 534.8 846.8 536 847.2 537.3C847.6 538.6 847.8 540.2 847.8 541.9V559.6H847.9Z" fill="white"/>
</g>
<defs>
<clipPath id="clip0_8946_10832">
<rect width="900" height="900" fill="white"/>
</clipPath>
</defs>
</svg>
