<svg width="32" height="32" viewBox="0 0 32 32" fill="none" xmlns="http://www.w3.org/2000/svg">
<rect width="32" height="32" rx="8" fill="#F26943"/>
<rect width="32" height="32" rx="8" fill="url(#paint0_linear_3114_18772)"/>
<circle cx="16" cy="16" r="14.4" fill="white"/>
<path d="M8.88642 22.4754C8.8582 22.5153 8.83156 22.5569 8.80662 22.6001C8.36328 23.368 8.62638 24.3499 9.39425 24.7932C10.1621 25.2366 11.144 24.9735 11.5873 24.2056C11.6123 24.1624 11.635 24.1185 11.6555 24.0741C11.7166 23.9772 11.7765 23.878 11.835 23.7766C12.8762 21.9732 13.0978 20.1518 12.3299 19.7085C11.5621 19.2652 10.0955 20.3677 9.05432 22.1711C8.99575 22.2726 8.93978 22.3741 8.88642 22.4754Z" fill="white"/>
<path fill-rule="evenodd" clip-rule="evenodd" d="M9.27834 22.7156L9.2611 22.74C9.241 22.7684 9.22189 22.7983 9.20387 22.8295C8.8872 23.378 9.07512 24.0793 9.6236 24.396C10.1721 24.7127 10.8734 24.5247 11.1901 23.9762C11.2081 23.945 11.2244 23.9136 11.239 23.8819L11.2515 23.8548L11.2675 23.8295C11.3253 23.7377 11.3822 23.6435 11.4378 23.5472C11.9351 22.6858 12.2251 21.8385 12.3055 21.1771C12.3459 20.8455 12.3308 20.5836 12.2803 20.3977C12.2305 20.2145 12.1573 20.1385 12.1006 20.1057C12.0439 20.073 11.9414 20.0476 11.7578 20.0961C11.5717 20.1453 11.3373 20.2632 11.0703 20.4639C10.5377 20.8643 9.94889 21.5391 9.45156 22.4005C9.39597 22.4968 9.34286 22.5931 9.29227 22.6891L9.27834 22.7156ZM8.88642 22.4754C8.93978 22.3741 8.99575 22.2726 9.05432 22.1711C10.0955 20.3677 11.5621 19.2652 12.3299 19.7085C13.0978 20.1518 12.8762 21.9732 11.835 23.7766C11.7765 23.878 11.7166 23.9772 11.6555 24.0741C11.635 24.1185 11.6123 24.1624 11.5873 24.2056C11.144 24.9735 10.1621 25.2366 9.39425 24.7932C8.62638 24.3499 8.36328 23.368 8.80662 22.6001C8.83156 22.5569 8.8582 22.5153 8.88642 22.4754Z" fill="#F26943"/>
<path fill-rule="evenodd" clip-rule="evenodd" d="M9.47887 22.8378L9.45281 22.8747C9.43687 22.8972 9.4216 22.9211 9.40711 22.9461C9.15518 23.3825 9.30469 23.9405 9.74105 24.1924C10.1774 24.4443 10.7354 24.2948 10.9873 23.8585C11.0018 23.8334 11.0148 23.8082 11.0264 23.7831L11.0453 23.7421L11.0694 23.7039C11.1256 23.6147 11.1809 23.5231 11.235 23.4294C11.7204 22.5886 11.9973 21.7714 12.0731 21.1482C12.1111 20.8352 12.0943 20.6058 12.0543 20.4586C12.0245 20.3489 11.9917 20.3149 11.9836 20.3082C11.9737 20.3045 11.9279 20.2931 11.818 20.3222C11.6705 20.3612 11.4634 20.4613 11.2114 20.6507C10.7096 21.028 10.1403 21.6763 9.65481 22.5171C9.60073 22.6108 9.54909 22.7044 9.49992 22.7978L9.47887 22.8378ZM11.9857 20.3092C11.9857 20.3092 11.985 20.309 11.9839 20.3083C11.9851 20.3088 11.9857 20.3091 11.9857 20.3092ZM11.9833 20.308C11.9822 20.3073 11.9817 20.3069 11.9817 20.3069C11.9817 20.3068 11.9823 20.3072 11.9833 20.308ZM9.27857 22.715L9.26133 22.7394C9.24123 22.7679 9.22212 22.7977 9.2041 22.8289C8.88743 23.3774 9.07535 24.0787 9.62384 24.3954C10.1723 24.7121 10.8737 24.5242 11.1903 23.9757C11.2083 23.9445 11.2246 23.913 11.2392 23.8814L11.2518 23.8542L11.2677 23.8289C11.3256 23.7371 11.3824 23.6429 11.438 23.5467C11.9354 22.6852 12.2253 21.8379 12.3058 21.1765C12.3461 20.8449 12.331 20.583 12.2805 20.3972C12.2308 20.2139 12.1575 20.1379 12.1008 20.1052C12.0441 20.0724 11.9416 20.047 11.7581 20.0955C11.5719 20.1447 11.3375 20.2626 11.0705 20.4633C10.538 20.8637 9.94913 21.5385 9.4518 22.3999C9.3962 22.4962 9.34309 22.5925 9.2925 22.6886L9.27857 22.715ZM8.68617 22.3524C8.73885 22.2528 8.79398 22.153 8.85153 22.0533C9.38402 21.131 10.0304 20.3781 10.654 19.9093C10.9654 19.6752 11.2805 19.5048 11.5809 19.4254C11.8826 19.3457 12.1863 19.3542 12.4474 19.5049C12.7085 19.6556 12.8677 19.9144 12.9494 20.2156C13.0309 20.5154 13.0409 20.8735 12.9938 21.2602C12.8996 22.0346 12.5708 22.9709 12.0383 23.8932C11.9807 23.9929 11.9219 24.0905 11.862 24.186C11.8402 24.232 11.8164 24.2775 11.7906 24.3222C11.2825 25.2022 10.1573 25.5037 9.27728 24.9957C8.39727 24.4876 8.09577 23.3624 8.60384 22.4824C8.62966 22.4376 8.65713 22.3943 8.68617 22.3524ZM8.88665 22.4748C8.94001 22.3735 8.99599 22.272 9.05455 22.1706C10.0957 20.3671 11.5623 19.2646 12.3302 19.7079C13.098 20.1512 12.8765 21.9726 11.8353 23.776C11.7767 23.8774 11.7168 23.9767 11.6557 24.0735C11.6352 24.1179 11.6125 24.1618 11.5876 24.205C11.1442 24.9729 10.1624 25.236 9.39449 24.7927C8.62661 24.3493 8.36352 23.3675 8.80685 22.5996C8.83179 22.5564 8.85843 22.5148 8.88665 22.4748Z" fill="#F26943"/>
<path d="M11.5391 24.2842C11.5311 23.6521 11.1996 23.0402 10.6124 22.7012C10.015 22.3563 9.30538 22.3818 8.74952 22.7065C8.38326 23.4576 8.65586 24.3749 9.39061 24.7991C10.1337 25.2281 11.0772 24.9956 11.5391 24.2842Z" fill="#FFAA93"/>
<path fill-rule="evenodd" clip-rule="evenodd" d="M11.0713 24.1468C11.0222 23.7226 10.78 23.3276 10.3831 23.0985C9.97839 22.8648 9.50493 22.8566 9.10832 23.0367C8.93327 23.545 9.13677 24.1229 9.61996 24.4018C10.1093 24.6843 10.7205 24.5652 11.0713 24.1468ZM11.5391 24.2842C11.5311 23.6521 11.1996 23.0402 10.6124 22.7012C10.015 22.3563 9.30538 22.3818 8.74952 22.7065C8.38326 23.4576 8.65586 24.3749 9.39061 24.7991C10.1337 25.2281 11.0772 24.9956 11.5391 24.2842Z" fill="#F26943"/>
<path fill-rule="evenodd" clip-rule="evenodd" d="M11.7748 24.3518L11.7361 24.4114C11.2067 25.2268 10.1255 25.4934 9.27377 25.0016C8.43165 24.5154 8.11935 23.4643 8.53919 22.6033L8.57032 22.5394L8.63166 22.5036C9.25723 22.1382 10.0568 22.1091 10.73 22.4977C11.3917 22.8798 11.7648 23.5694 11.7739 24.2807L11.7748 24.3518ZM10.8221 24.0701C10.7571 23.7567 10.564 23.4729 10.2662 23.301C9.96207 23.1254 9.61133 23.1027 9.30261 23.2108C9.21861 23.589 9.38416 23.9943 9.73754 24.1984C10.0959 24.4052 10.5368 24.3414 10.8221 24.0701ZM10.3834 23.098C10.7804 23.3272 11.0225 23.7221 11.0717 24.1464C10.7209 24.5647 10.1096 24.6839 9.62033 24.4014C9.13714 24.1224 8.93364 23.5446 9.10869 23.0362C9.5053 22.8562 9.97876 22.8644 10.3834 23.098ZM10.6128 22.7008C11.2 23.0398 11.5314 23.6516 11.5395 24.2837C11.0776 24.9951 10.1341 25.2277 9.39098 24.7986C8.65623 24.3744 8.38363 23.4571 8.74989 22.706C9.30575 22.3814 10.0154 22.3558 10.6128 22.7008Z" fill="#F26943"/>
<path d="M13.9971 25.2431C14.9344 26.2603 16.7804 26.2603 17.7177 25.2431L19.6649 23.1301C20.8434 21.8514 19.7446 20.0062 17.8046 20.0062H13.9102C11.9702 20.0062 10.8714 21.8514 12.0499 23.1301L13.9971 25.2431Z" fill="white"/>
<path fill-rule="evenodd" clip-rule="evenodd" d="M17.3804 24.9323L19.3276 22.8193C19.773 22.3359 19.7809 21.7781 19.51 21.3233C19.2306 20.854 18.6285 20.4649 17.8046 20.4649H13.9102C13.0863 20.4649 12.4842 20.854 12.2047 21.3233C11.9339 21.7781 11.9418 22.3359 12.3872 22.8193L14.3344 24.9323C14.7013 25.3304 15.2659 25.5473 15.8574 25.5473C16.4489 25.5473 17.0135 25.3304 17.3804 24.9323ZM17.7177 25.2431C16.7804 26.2603 14.9344 26.2603 13.9971 25.2431L12.0499 23.1301C10.8714 21.8514 11.9702 20.0062 13.9102 20.0062H17.8046C19.7446 20.0062 20.8434 21.8514 19.6649 23.1301L17.7177 25.2431Z" fill="#F26943"/>
<path fill-rule="evenodd" clip-rule="evenodd" d="M17.2072 24.773L19.1544 22.66C19.5265 22.2561 19.5278 21.8123 19.3078 21.4428C19.0744 21.0509 18.5528 20.6989 17.8037 20.6989H13.9093C13.1603 20.6989 12.6387 21.0509 12.4053 21.4428C12.1853 21.8123 12.1866 22.2561 12.5587 22.66L14.5059 24.773C14.8209 25.1148 15.3185 25.3125 15.8565 25.3125C16.3946 25.3125 16.8922 25.1148 17.2072 24.773ZM15.8565 26.24C15.1074 26.24 14.3445 25.9666 13.8238 25.4016L11.8766 23.2885C11.2139 22.5694 11.1879 21.6744 11.6084 20.9682C12.0245 20.2695 12.8647 19.7714 13.9093 19.7714H17.8037C18.8484 19.7714 19.6886 20.2695 20.1047 20.9682C20.5252 21.6744 20.4992 22.5694 19.8365 23.2885L17.8893 25.4016C17.3686 25.9666 16.6057 26.24 15.8565 26.24ZM19.3268 22.8188L17.3796 24.9319C17.0127 25.33 16.4481 25.5469 15.8565 25.5469C15.265 25.5469 14.7004 25.33 14.3335 24.9319L12.3863 22.8188C11.9409 22.3355 11.9331 21.7777 12.2039 21.3229C12.4834 20.8536 13.0854 20.4645 13.9093 20.4645H17.8037C18.6277 20.4645 19.2297 20.8536 19.5092 21.3229C19.78 21.7777 19.7722 22.3355 19.3268 22.8188ZM13.9962 25.2427C14.9336 26.2599 16.7795 26.2599 17.7169 25.2427L19.6641 23.1297C20.8425 21.8509 19.7437 20.0058 17.8037 20.0058H13.9093C11.9694 20.0058 10.8706 21.8509 12.049 23.1297L13.9962 25.2427Z" fill="#F26943"/>
<path fill-rule="evenodd" clip-rule="evenodd" d="M17.6869 25.2439C16.7495 26.2611 14.9036 26.2611 13.9662 25.2439L12.019 23.1309C11.8413 22.938 11.7154 22.7323 11.6364 22.522L12.423 22.9243C12.8175 23.3096 14.078 23.983 15.9642 23.594C17.8503 23.205 19.1598 22.7102 19.5787 22.5115L20.0023 22.5591C19.9227 22.7565 19.8013 22.9494 19.6341 23.1309L17.6869 25.2439Z" fill="#F26943"/>
<path d="M23.0945 22.4754C23.1228 22.5153 23.1494 22.5569 23.1743 22.6001C23.6177 23.368 23.3546 24.3499 22.5867 24.7932C21.8188 25.2366 20.837 24.9735 20.3936 24.2056C20.3687 24.1624 20.3459 24.1185 20.3255 24.0741C20.2644 23.9772 20.2045 23.878 20.1459 23.7766C19.1047 21.9732 18.8831 20.1518 19.651 19.7085C20.4189 19.2652 21.8854 20.3677 22.9266 22.1711C22.9852 22.2726 23.0412 22.3741 23.0945 22.4754Z" fill="white"/>
<path fill-rule="evenodd" clip-rule="evenodd" d="M22.7026 22.7156L22.7199 22.74C22.74 22.7684 22.7591 22.7983 22.7771 22.8295C23.0938 23.378 22.9058 24.0793 22.3574 24.396C21.8089 24.7127 21.1075 24.5247 20.7909 23.9762C20.7728 23.945 20.7566 23.9136 20.742 23.8819L20.7294 23.8548L20.7135 23.8295C20.6556 23.7377 20.5988 23.6435 20.5432 23.5472C20.0458 22.6858 19.7559 21.8385 19.6754 21.1771C19.6351 20.8455 19.6502 20.5836 19.7007 20.3977C19.7504 20.2145 19.8237 20.1385 19.8804 20.1057C19.9371 20.073 20.0396 20.0476 20.2231 20.0961C20.4093 20.1453 20.6437 20.2632 20.9107 20.4639C21.4432 20.8643 22.0321 21.5391 22.5294 22.4005C22.585 22.4968 22.6381 22.5931 22.6887 22.6891L22.7026 22.7156ZM23.0945 22.4754C23.0412 22.3741 22.9852 22.2726 22.9266 22.1711C21.8854 20.3677 20.4189 19.2652 19.651 19.7085C18.8831 20.1518 19.1047 21.9732 20.1459 23.7766C20.2045 23.878 20.2644 23.9772 20.3255 24.0741C20.3459 24.1185 20.3687 24.1624 20.3936 24.2056C20.837 24.9735 21.8188 25.2366 22.5867 24.7932C23.3546 24.3499 23.6177 23.368 23.1743 22.6001C23.1494 22.5569 23.1228 22.5153 23.0945 22.4754Z" fill="#F26943"/>
<path fill-rule="evenodd" clip-rule="evenodd" d="M22.5017 22.8378L22.5278 22.8747C22.5437 22.8972 22.559 22.9211 22.5735 22.9461C22.8254 23.3825 22.6759 23.9405 22.2395 24.1924C21.8032 24.4443 21.2452 24.2948 20.9933 23.8585C20.9788 23.8334 20.9658 23.8082 20.9542 23.7831L20.9353 23.7421L20.9112 23.7039C20.8549 23.6147 20.7997 23.5231 20.7456 23.4294C20.2601 22.5886 19.9833 21.7714 19.9075 21.1482C19.8694 20.8352 19.8863 20.6058 19.9263 20.4586C19.9561 20.3489 19.9889 20.3149 19.997 20.3082C20.0069 20.3045 20.0527 20.2931 20.1626 20.3222C20.3101 20.3612 20.5172 20.4613 20.7692 20.6507C21.271 21.028 21.8403 21.6763 22.3258 22.5171C22.3799 22.6108 22.4315 22.7044 22.4807 22.7978L22.5017 22.8378ZM19.9949 20.3092C19.9949 20.3092 19.9955 20.309 19.9967 20.3083C19.9954 20.3088 19.9949 20.3091 19.9949 20.3092ZM19.9973 20.308C19.9984 20.3073 19.9989 20.3069 19.9989 20.3069C19.9989 20.3068 19.9983 20.3072 19.9973 20.308ZM22.702 22.715L22.7193 22.7394C22.7394 22.7679 22.7585 22.7977 22.7765 22.8289C23.0932 23.3774 22.9052 24.0787 22.3568 24.3954C21.8083 24.7121 21.1069 24.5242 20.7903 23.9757C20.7722 23.9445 20.756 23.913 20.7414 23.8814L20.7288 23.8542L20.7129 23.8289C20.655 23.7371 20.5982 23.6429 20.5426 23.5467C20.0452 22.6852 19.7553 21.8379 19.6748 21.1765C19.6345 20.8449 19.6496 20.583 19.7001 20.3972C19.7498 20.2139 19.8231 20.1379 19.8798 20.1052C19.9365 20.0724 20.039 20.047 20.2225 20.0955C20.4087 20.1447 20.6431 20.2626 20.9101 20.4633C21.4426 20.8637 22.0315 21.5385 22.5288 22.3999C22.5844 22.4962 22.6375 22.5925 22.6881 22.6886L22.702 22.715ZM23.2944 22.3524C23.2417 22.2528 23.1866 22.153 23.1291 22.0533C22.5966 21.131 21.9502 20.3781 21.3266 19.9093C21.0152 19.6752 20.7001 19.5048 20.3997 19.4254C20.098 19.3457 19.7943 19.3542 19.5332 19.5049C19.2721 19.6556 19.1129 19.9144 19.0312 20.2156C18.9497 20.5154 18.9397 20.8735 18.9868 21.2602C19.081 22.0346 19.4098 22.9709 19.9423 23.8932C19.9999 23.9929 20.0587 24.0905 20.1186 24.186C20.1404 24.232 20.1642 24.2775 20.19 24.3222C20.6981 25.2022 21.8233 25.5037 22.7033 24.9957C23.5833 24.4876 23.8848 23.3624 23.3768 22.4824C23.3509 22.4376 23.3235 22.3943 23.2944 22.3524ZM23.0939 22.4748C23.0406 22.3735 22.9846 22.272 22.926 22.1706C21.8848 20.3671 20.4183 19.2646 19.6504 19.7079C18.8825 20.1512 19.1041 21.9726 20.1453 23.776C20.2039 23.8774 20.2638 23.9767 20.3249 24.0735C20.3453 24.1179 20.3681 24.1618 20.393 24.205C20.8364 24.9729 21.8182 25.236 22.5861 24.7927C23.354 24.3493 23.6171 23.3675 23.1737 22.5996C23.1488 22.5564 23.1222 22.5148 23.0939 22.4748Z" fill="#F26943"/>
<path d="M9.93004 10.1504C10.1327 10.5014 10.5816 10.6217 10.9326 10.4191C11.2836 10.2164 11.4039 9.76753 11.2012 9.4165L9.64164 6.71522C9.43898 6.3642 8.99012 6.24392 8.63909 6.44659C8.28806 6.64926 8.16779 7.09812 8.37046 7.44914L9.93004 10.1504Z" fill="#F26943"/>
<path fill-rule="evenodd" clip-rule="evenodd" d="M11.4045 9.29986L9.84489 6.59859C9.57749 6.13544 8.98526 5.97675 8.52211 6.24415C8.05896 6.51155 7.90027 7.10378 8.16767 7.56693L9.72725 10.2682C9.99465 10.7314 10.5869 10.89 11.05 10.6226C11.5132 10.3552 11.6719 9.76301 11.4045 9.29986ZM10.9328 10.4196C10.5818 10.6223 10.1329 10.502 9.93027 10.151L8.37069 7.44972C8.16802 7.09869 8.28829 6.64983 8.63932 6.44716C8.99035 6.2445 9.43921 6.36477 9.64188 6.7158L11.2015 9.41707C11.4041 9.7681 11.2839 10.217 10.9328 10.4196Z" fill="#F26943"/>
<path d="M22.9549 13.3792C22.9564 13.325 22.9571 13.2707 22.9571 13.2162C22.9571 9.67967 19.7739 6.81274 15.8473 6.81274C11.9206 6.81274 8.73743 9.67967 8.73743 13.2162C8.73743 13.2707 8.73818 13.325 8.73968 13.3792C8.73818 13.4348 8.73743 13.4905 8.73743 13.5465C8.73743 16.9006 11.4565 19.6197 14.8106 19.6197H16.8839C20.2381 19.6197 22.9571 16.9006 22.9571 13.5465C22.9571 13.4905 22.9564 13.4348 22.9549 13.3792Z" fill="white"/>
<path fill-rule="evenodd" clip-rule="evenodd" d="M22.496 13.379L22.4963 13.3665C22.4977 13.3166 22.4984 13.2665 22.4984 13.2162C22.4984 9.97698 19.5669 7.27144 15.8473 7.27144C12.1276 7.27144 9.19613 9.97698 9.19613 13.2162C9.19613 13.2665 9.19682 13.3166 9.19821 13.3665L9.19856 13.379L9.19822 13.3916C9.19682 13.443 9.19613 13.4946 9.19613 13.5465C9.19613 16.6473 11.7098 19.161 14.8106 19.161H16.8839C19.9847 19.161 22.4984 16.6473 22.4984 13.5465C22.4984 13.4946 22.4977 13.443 22.4963 13.3916L22.496 13.379ZM8.73968 13.3792C8.73818 13.325 8.73743 13.2707 8.73743 13.2162C8.73743 9.67967 11.9206 6.81274 15.8473 6.81274C19.7739 6.81274 22.9571 9.67967 22.9571 13.2162C22.9571 13.2707 22.9564 13.325 22.9549 13.3792C22.9564 13.4348 22.9571 13.4905 22.9571 13.5465C22.9571 16.9006 20.2381 19.6197 16.8839 19.6197H14.8106C11.4565 19.6197 8.73743 16.9006 8.73743 13.5465C8.73743 13.4905 8.73818 13.4348 8.73968 13.3792Z" fill="#F26943"/>
<path fill-rule="evenodd" clip-rule="evenodd" d="M22.2623 13.3799L22.2628 13.3608C22.2641 13.3131 22.2648 13.2652 22.2648 13.2171C22.2648 10.1293 19.4614 7.50677 15.8481 7.50677C12.2347 7.50677 9.43133 10.1293 9.43133 13.2171C9.43133 13.2652 9.43199 13.3131 9.43332 13.3608L9.43385 13.3799L9.43333 13.3989C9.432 13.4481 9.43133 13.4976 9.43133 13.5474C9.43133 16.5187 11.8401 18.9274 14.8114 18.9274H16.8847C19.856 18.9274 22.2648 16.5187 22.2648 13.5474C22.2648 13.4976 22.2641 13.4481 22.2628 13.3989L22.2623 13.3799ZM9.19934 13.3799L9.19899 13.3674C9.1976 13.3175 9.19691 13.2674 9.19691 13.2171C9.19691 9.97788 12.1284 7.27235 15.8481 7.27235C19.5677 7.27235 22.4992 9.97788 22.4992 13.2171C22.4992 13.2674 22.4985 13.3175 22.4971 13.3674L22.4968 13.3799L22.4971 13.3925C22.4985 13.4439 22.4992 13.4955 22.4992 13.5474C22.4992 16.6482 19.9855 19.1619 16.8847 19.1619H14.8114C11.7106 19.1619 9.19691 16.6482 9.19691 13.5474C9.19691 13.4955 9.1976 13.4439 9.199 13.3925L9.19934 13.3799ZM8.50596 13.3802C8.50451 13.326 8.50378 13.2716 8.50378 13.2171C8.50378 9.52864 11.8156 6.57922 15.8481 6.57922C19.8805 6.57922 23.1923 9.52864 23.1923 13.2171C23.1923 13.2716 23.1916 13.326 23.1902 13.3802C23.1916 13.4357 23.1923 13.4915 23.1923 13.5474C23.1923 17.031 20.3683 19.855 16.8847 19.855H14.8114C11.3278 19.855 8.50378 17.031 8.50378 13.5474C8.50378 13.4915 8.50451 13.4357 8.50596 13.3802ZM22.9557 13.3801C22.9572 13.3259 22.9579 13.2716 22.9579 13.2171C22.9579 9.68058 19.7747 6.81365 15.8481 6.81365C11.9214 6.81365 8.73821 9.68058 8.73821 13.2171C8.73821 13.2716 8.73896 13.3259 8.74046 13.3801C8.73896 13.4357 8.73821 13.4914 8.73821 13.5474C8.73821 16.9015 11.4573 19.6206 14.8114 19.6206H16.8847C20.2389 19.6206 22.9579 16.9015 22.9579 13.5474C22.9579 13.4914 22.9572 13.4357 22.9557 13.3801Z" fill="#F26943"/>
<path d="M14.6607 14.4187C14.6607 15.9347 13.4849 17.1637 12.0346 17.1637C10.5842 17.1637 9.40845 15.9347 9.40845 14.4187C9.40845 12.9027 10.5842 11.6737 12.0346 11.6737C13.4849 11.6737 14.6607 12.9027 14.6607 14.4187Z" fill="#0C173C"/>
<path d="M20.822 14.4187C20.822 15.9347 19.6462 17.1637 18.1958 17.1637C16.7455 17.1637 15.5697 15.9347 15.5697 14.4187C15.5697 12.9027 16.7455 11.6737 18.1958 11.6737C19.6462 11.6737 20.822 12.9027 20.822 14.4187Z" fill="#0C173C"/>
<path d="M14.5493 16.2175C14.1855 16.7812 13.666 17.2119 13.0547 17.4444C12.4434 17.677 11.7773 17.7013 11.1519 17.5139C10.5266 17.3265 9.97401 16.9369 9.57348 16.401C9.17294 15.8652 8.94499 15.2105 8.92229 14.5309C8.89958 13.8513 9.08329 13.1817 9.44709 12.6179C9.81088 12.0542 10.3361 11.6253 10.9474 11.3927C11.5587 11.1601 12.2248 11.1358 12.8502 11.3232C13.4756 11.5107 14.027 11.9048 14.4275 12.4407L13.6275 13.0903C13.3592 12.7313 12.989 12.4703 12.57 12.3447C12.151 12.2191 11.7047 12.2354 11.2951 12.3912C10.8855 12.547 10.5336 12.8344 10.2899 13.2121C10.0462 13.5898 9.92307 14.0385 9.93828 14.4939C9.95349 14.9492 10.1062 15.3878 10.3746 15.7468C10.6429 16.1058 11.0131 16.3669 11.4321 16.4924C11.8511 16.618 12.2974 16.6017 12.707 16.4459C13.1166 16.2901 13.4685 16.0027 13.7122 15.625L14.5493 16.2175Z" fill="#F26943"/>
<path d="M15.7549 16.2175C16.1187 16.7812 16.6382 17.2119 17.2495 17.4444C17.8608 17.677 18.5269 17.7013 19.1523 17.5139C19.7776 17.3265 20.3302 16.9369 20.7307 16.401C21.1313 15.8652 21.3592 15.2105 21.3819 14.5309C21.4046 13.8513 21.2209 13.1817 20.8571 12.6179C20.4933 12.0542 19.9681 11.6253 19.3568 11.3927C18.7454 11.1601 18.0794 11.1358 17.454 11.3232C16.8286 11.5107 16.2772 11.9048 15.8767 12.4407L16.6767 13.0903C16.945 12.7313 17.3152 12.4703 17.7342 12.3447C18.1532 12.2191 18.5995 12.2354 19.0091 12.3912C19.4187 12.547 19.7706 12.8344 20.0143 13.2121C20.258 13.5898 20.3811 14.0385 20.3659 14.4939C20.3507 14.9492 20.198 15.3878 19.9296 15.7468C19.6613 16.1058 19.2911 16.3669 18.8721 16.4924C18.4531 16.618 18.0068 16.6017 17.5972 16.4459C17.1876 16.2901 16.8357 16.0027 16.592 15.625L15.7549 16.2175Z" fill="#3EC3DB"/>
<path d="M15.7806 16.2435C15.9401 16.4776 16.2535 16.5303 16.4807 16.3611C16.7079 16.192 16.7628 15.8652 16.6033 15.6311L14.4461 12.465C14.2867 12.2309 13.9732 12.1782 13.746 12.3474C13.5188 12.5165 13.4639 12.8433 13.6234 13.0774L15.7806 16.2435Z" fill="#F26943"/>
<path d="M15.7806 16.2435C15.9401 16.4776 16.2535 16.5303 16.4807 16.3611C16.7079 16.192 16.7628 15.8652 16.6033 15.6311L14.4461 12.465C14.2867 12.2309 13.9732 12.1782 13.746 12.3474C13.5188 12.5165 13.4639 12.8433 13.6234 13.0774L15.7806 16.2435Z" fill="url(#paint1_linear_3114_18772)"/>
<path d="M14.5473 16.2179C14.3878 16.452 14.0744 16.5046 13.8472 16.3355C13.62 16.1664 13.5651 15.8395 13.7246 15.6055L15.8817 12.4393C16.0412 12.2053 16.3547 12.1526 16.5819 12.3217C16.8091 12.4908 16.8639 12.8177 16.7045 13.0518L14.5473 16.2179Z" fill="#3EC3DB"/>
<path d="M14.5473 16.2179C14.3878 16.452 14.0744 16.5046 13.8472 16.3355C13.62 16.1664 13.5651 15.8395 13.7246 15.6055L15.8817 12.4393C16.0412 12.2053 16.3547 12.1526 16.5819 12.3217C16.8091 12.4908 16.8639 12.8177 16.7045 13.0518L14.5473 16.2179Z" fill="url(#paint2_linear_3114_18772)"/>
<path d="M22.5902 7.11911C22.7929 6.76809 23.2417 6.64781 23.5927 6.85048C23.9438 7.05315 24.064 7.50201 23.8614 7.85303L22.3018 10.5543C22.0991 10.9053 21.6503 11.0256 21.2992 10.8229C20.9482 10.6203 20.8279 10.1714 21.0306 9.82039L22.5902 7.11911Z" fill="#F26943"/>
<path fill-rule="evenodd" clip-rule="evenodd" d="M24.0646 7.96967L22.505 10.6709C22.2376 11.1341 21.6454 11.2928 21.1823 11.0254C20.7191 10.758 20.5604 10.1658 20.8278 9.7026L22.3874 7.00133C22.6548 6.53818 23.247 6.37949 23.7102 6.64689C24.1733 6.91429 24.332 7.50652 24.0646 7.96967ZM23.593 6.84991C23.242 6.64724 22.7931 6.76751 22.5904 7.11854L21.0308 9.81981C20.8282 10.1708 20.9485 10.6197 21.2995 10.8224C21.6505 11.025 22.0994 10.9048 22.302 10.5537L23.8616 7.85246C24.0643 7.50143 23.944 7.05257 23.593 6.84991Z" fill="#F26943"/>
<path d="M11.7467 14.4009C11.7467 14.7809 11.4387 15.089 11.0587 15.089C10.6787 15.089 10.3706 14.7809 10.3706 14.4009C10.3706 14.0209 10.6787 13.7129 11.0587 13.7129C11.4387 13.7129 11.7467 14.0209 11.7467 14.4009Z" fill="#3EC3DB"/>
<path d="M18.2596 14.4009C18.2596 14.7809 17.9557 15.089 17.5807 15.089C17.2058 15.089 16.9019 14.7809 16.9019 14.4009C16.9019 14.0209 17.2058 13.7129 17.5807 13.7129C17.9557 13.7129 18.2596 14.0209 18.2596 14.4009Z" fill="#3EC3DB"/>
<path d="M23.2333 22.6826C22.6818 22.3735 21.9862 22.3547 21.399 22.6937C20.8016 23.0386 20.4689 23.6659 20.4722 24.3096C20.9395 25.0024 21.8702 25.2249 22.6049 24.8007C23.348 24.3717 23.6184 23.4383 23.2333 22.6826Z" fill="#FFAA93"/>
<path fill-rule="evenodd" clip-rule="evenodd" d="M22.8804 23.0191C22.4884 22.8495 22.0253 22.8618 21.6284 23.0909C21.2237 23.3246 20.9799 23.7305 20.9375 24.164C21.2902 24.5698 21.8924 24.6825 22.3756 24.4035C22.8649 24.121 23.0673 23.5321 22.8804 23.0191ZM23.2333 22.6826C22.6818 22.3735 21.9862 22.3547 21.399 22.6937C20.8016 23.0386 20.4689 23.6659 20.4722 24.3096C20.9395 25.0024 21.8702 25.2249 22.6049 24.8007C23.348 24.3717 23.6184 23.4383 23.2333 22.6826Z" fill="#F26943"/>
<path fill-rule="evenodd" clip-rule="evenodd" d="M23.4094 22.5113L23.4417 22.5746C23.8832 23.4408 23.5734 24.5104 22.7217 25.0022C21.8796 25.4884 20.8131 25.2332 20.2774 24.4391L20.2377 24.3803L20.2373 24.3092C20.2336 23.5848 20.6082 22.8778 21.2814 22.4891C21.9431 22.107 22.7269 22.1287 23.3475 22.4765L23.4094 22.5113ZM22.6892 23.1955C22.3852 23.0951 22.0429 23.1205 21.7452 23.2924C21.441 23.468 21.246 23.7604 21.1852 24.0817C21.4708 24.3436 21.9046 24.4029 22.2579 24.1989C22.6163 23.992 22.7814 23.5782 22.6892 23.1955ZM21.6279 23.0893C22.0249 22.8602 22.488 22.8479 22.88 23.0175C23.0669 23.5305 22.8645 24.1194 22.3751 24.4019C21.892 24.6809 21.2898 24.5682 20.9371 24.1624C20.9795 23.7289 21.2233 23.323 21.6279 23.0893ZM21.3986 22.6921C21.9858 22.3531 22.6814 22.372 23.2328 22.681C23.618 23.4367 23.3476 24.3701 22.6045 24.7991C21.8697 25.2233 20.9391 25.0008 20.4717 24.308C20.4685 23.6643 20.8012 23.037 21.3986 22.6921Z" fill="#F26943"/>
<defs>
<linearGradient id="paint0_linear_3114_18772" x1="32" y1="32" x2="0" y2="0" gradientUnits="userSpaceOnUse">
<stop stop-color="#3EC3DB"/>
<stop offset="0.542275" stop-color="white" stop-opacity="0"/>
</linearGradient>
<linearGradient id="paint1_linear_3114_18772" x1="15.9804" y1="14.5794" x2="13.6568" y2="12.4445" gradientUnits="userSpaceOnUse">
<stop stop-color="#3EC3DB"/>
<stop offset="0.306607" stop-color="#3EC3DB" stop-opacity="0"/>
</linearGradient>
<linearGradient id="paint2_linear_3114_18772" x1="15.585" y1="14.1314" x2="16.5672" y2="12.6676" gradientUnits="userSpaceOnUse">
<stop stop-color="#F26943"/>
<stop offset="1" stop-color="white" stop-opacity="0"/>
</linearGradient>
</defs>
</svg>
