<svg width="18" height="15" viewBox="0 0 18 15" fill="none" xmlns="http://www.w3.org/2000/svg">
<path d="M7.90625 14.625C8.20833 14.625 8.45833 14.526 8.65625 14.3281C8.85417 14.1302 8.95312 13.8828 8.95312 13.5859V10.7656H9.14844C10.1068 10.7656 10.9479 10.8672 11.6719 11.0703C12.3958 11.2734 13.0286 11.6042 13.5703 12.0625C14.1172 12.5208 14.5964 13.1354 15.0078 13.9062C15.1641 14.1875 15.3333 14.3724 15.5156 14.4609C15.7031 14.5495 15.8984 14.5938 16.1016 14.5938C16.3724 14.5938 16.599 14.4688 16.7812 14.2188C16.9688 13.974 17.0625 13.6094 17.0625 13.125C17.0625 11.7083 16.9036 10.4375 16.5859 9.3125C16.2682 8.18229 15.7839 7.21875 15.1328 6.42188C14.487 5.625 13.6667 5.01823 12.6719 4.60156C11.6771 4.17969 10.5026 3.96875 9.14844 3.96875H8.95312V1.17188C8.95312 0.875 8.85417 0.622396 8.65625 0.414062C8.45833 0.200521 8.20312 0.09375 7.89062 0.09375C7.68229 0.09375 7.49479 0.140625 7.32812 0.234375C7.16146 0.322917 6.96615 0.473958 6.74219 0.6875L0.554688 6.45312C0.398438 6.59375 0.289062 6.74479 0.226562 6.90625C0.164062 7.0625 0.132812 7.21354 0.132812 7.35938C0.132812 7.5 0.164062 7.65104 0.226562 7.8125C0.289062 7.97396 0.398438 8.125 0.554688 8.26562L6.74219 14.0781C6.94531 14.2708 7.13542 14.4089 7.3125 14.4922C7.49479 14.5807 7.69271 14.625 7.90625 14.625Z" fill="#7F7F7F"/>
</svg>
