<svg width="22" height="15" viewBox="0 0 22 15" fill="none" xmlns="http://www.w3.org/2000/svg">
<path d="M12.1406 14.625C12.4427 14.625 12.6927 14.5234 12.8906 14.3203C13.0885 14.1224 13.1875 13.875 13.1875 13.5781V10.7656H13.3828C14.3411 10.7656 15.1823 10.8672 15.9062 11.0703C16.6302 11.2682 17.2656 11.5964 17.8125 12.0547C18.3594 12.513 18.8385 13.1276 19.25 13.8984C19.401 14.1797 19.5677 14.3646 19.75 14.4531C19.9375 14.5417 20.1328 14.5859 20.3359 14.5859C20.6068 14.5859 20.8333 14.4609 21.0156 14.2109C21.2031 13.9661 21.2969 13.6042 21.2969 13.125C21.2969 11.7031 21.138 10.4297 20.8203 9.30469C20.5026 8.17448 20.0182 7.21354 19.3672 6.42188C18.7214 5.625 17.901 5.01823 16.9062 4.60156C15.9115 4.17969 14.737 3.96875 13.3828 3.96875H13.1875V1.16406C13.1875 0.867188 13.0885 0.614583 12.8906 0.40625C12.6927 0.192708 12.4401 0.0859375 12.1328 0.0859375C11.9245 0.0859375 11.7344 0.132812 11.5625 0.226562C11.3958 0.315104 11.2005 0.466146 10.9766 0.679688L4.78906 6.44531C4.63802 6.58073 4.52865 6.72917 4.46094 6.89062C4.39844 7.04688 4.36719 7.20052 4.36719 7.35156C4.36719 7.5026 4.40104 7.65885 4.46875 7.82031C4.53646 7.97656 4.64323 8.1224 4.78906 8.25781L10.9766 14.0703C11.1797 14.263 11.3724 14.4036 11.5547 14.4922C11.737 14.5807 11.9323 14.625 12.1406 14.625ZM8.02344 14.625C8.29427 14.625 8.52083 14.5573 8.70312 14.4219C8.89062 14.2865 8.9974 14.125 9.02344 13.9375V13.7188L3.99219 9.07812C3.74219 8.84896 3.54427 8.58594 3.39844 8.28906C3.25781 7.99219 3.1875 7.68229 3.1875 7.35938C3.1875 7.03646 3.25781 6.72917 3.39844 6.4375C3.53906 6.14062 3.73698 5.875 3.99219 5.64062L9.02344 1.03125V0.8125C8.9974 0.619792 8.89062 0.453125 8.70312 0.3125C8.51562 0.166667 8.28385 0.09375 8.00781 0.09375C7.79948 0.09375 7.61198 0.140625 7.44531 0.234375C7.27865 0.322917 7.08073 0.473958 6.85156 0.6875L0.664062 6.45312C0.513021 6.59375 0.40625 6.74479 0.34375 6.90625C0.28125 7.0625 0.25 7.21354 0.25 7.35938C0.25 7.5 0.28125 7.65104 0.34375 7.8125C0.40625 7.97396 0.513021 8.125 0.664062 8.26562L6.85156 14.0781C7.05469 14.2708 7.2474 14.4089 7.42969 14.4922C7.61198 14.5807 7.8099 14.625 8.02344 14.625Z" fill="#7F7F7F"/>
</svg>
