<svg width="17" height="17" viewBox="0 0 17 17" fill="none" xmlns="http://www.w3.org/2000/svg">
<path d="M7.98438 16.6562H9.41406C9.64844 16.6562 9.84635 16.5911 10.0078 16.4609C10.1693 16.3359 10.276 16.1589 10.3281 15.9297L10.7188 14.2656C10.8542 14.2188 10.9844 14.1693 11.1094 14.1172C11.2396 14.0703 11.362 14.0208 11.4766 13.9688L12.9297 14.8516C13.1224 14.9714 13.3229 15.0208 13.5312 15C13.7396 14.9844 13.9245 14.8958 14.0859 14.7344L15.0859 13.7422C15.2474 13.5807 15.3385 13.3932 15.3594 13.1797C15.3802 12.9609 15.3255 12.7552 15.1953 12.5625L14.3047 11.125C14.3672 11.0052 14.4219 10.8854 14.4688 10.7656C14.5156 10.6406 14.5599 10.5156 14.6016 10.3906L16.2812 9.99219C16.5052 9.94531 16.6797 9.84115 16.8047 9.67969C16.9349 9.51302 17 9.3125 17 9.07812V7.67969C17 7.45052 16.9349 7.25521 16.8047 7.09375C16.6797 6.92708 16.5052 6.82031 16.2812 6.77344L14.6172 6.375C14.5703 6.23438 14.5208 6.10156 14.4688 5.97656C14.4167 5.85156 14.3672 5.73438 14.3203 5.625L15.2109 4.16406C15.3359 3.97135 15.3906 3.77083 15.375 3.5625C15.3594 3.35417 15.2682 3.16927 15.1016 3.00781L14.0781 2C13.9167 1.85417 13.737 1.76823 13.5391 1.74219C13.3464 1.71615 13.1536 1.75781 12.9609 1.86719L11.4766 2.78125C11.3672 2.72396 11.2474 2.67188 11.1172 2.625C10.9922 2.57292 10.8594 2.52344 10.7188 2.47656L10.3281 0.789062C10.276 0.565104 10.1693 0.388021 10.0078 0.257812C9.84635 0.122396 9.64844 0.0546875 9.41406 0.0546875H7.98438C7.75521 0.0546875 7.55729 0.122396 7.39062 0.257812C7.22917 0.388021 7.1224 0.565104 7.07031 0.789062L6.67969 2.46094C6.54427 2.50781 6.41146 2.55729 6.28125 2.60938C6.15104 2.66146 6.02865 2.71615 5.91406 2.77344L4.4375 1.86719C4.24479 1.75781 4.04948 1.71615 3.85156 1.74219C3.65885 1.76302 3.47917 1.85156 3.3125 2.00781L2.30469 3.00781C2.13802 3.16927 2.04427 3.35417 2.02344 3.5625C2.00781 3.77083 2.0625 3.97135 2.1875 4.16406L3.07031 5.625C3.02344 5.73438 2.97396 5.85156 2.92188 5.97656C2.86979 6.10156 2.82292 6.23438 2.78125 6.375L1.125 6.77344C0.895833 6.82031 0.716146 6.92708 0.585938 7.09375C0.460938 7.25521 0.398438 7.45052 0.398438 7.67969V9.07812C0.398438 9.3125 0.460938 9.51302 0.585938 9.67969C0.716146 9.84115 0.895833 9.94531 1.125 9.99219L2.79688 10.3906C2.83333 10.5156 2.8776 10.6406 2.92969 10.7656C2.98177 10.8854 3.03385 11.0052 3.08594 11.125L2.20312 12.5625C2.07812 12.7552 2.02604 12.9609 2.04688 13.1797C2.06771 13.3932 2.15885 13.5807 2.32031 13.7422L3.3125 14.7344C3.47396 14.8958 3.65885 14.9844 3.86719 15C4.07552 15.0208 4.27604 14.9714 4.46875 14.8516L5.92188 13.9688C6.03646 14.0208 6.15625 14.0703 6.28125 14.1172C6.41146 14.1693 6.54427 14.2188 6.67969 14.2656L7.07031 15.9297C7.1224 16.1589 7.22917 16.3359 7.39062 16.4609C7.55729 16.5911 7.75521 16.6562 7.98438 16.6562ZM8.70312 11.0938C8.20312 11.0938 7.74479 10.9714 7.32812 10.7266C6.91146 10.4766 6.58073 10.1432 6.33594 9.72656C6.09115 9.3099 5.96875 8.85156 5.96875 8.35156C5.96875 7.85156 6.09115 7.39583 6.33594 6.98438C6.58594 6.57292 6.91667 6.24479 7.32812 6C7.74479 5.75 8.20312 5.625 8.70312 5.625C9.20312 5.625 9.65885 5.75 10.0703 6C10.487 6.24479 10.8177 6.57292 11.0625 6.98438C11.3073 7.39583 11.4297 7.85156 11.4297 8.35156C11.4297 8.85156 11.3073 9.3099 11.0625 9.72656C10.8177 10.1432 10.487 10.4766 10.0703 10.7266C9.65885 10.9714 9.20312 11.0938 8.70312 11.0938Z" fill="#7F7F7F"/>
</svg>
