<svg width="20" height="19" viewBox="0 0 20 19" fill="none" xmlns="http://www.w3.org/2000/svg">
<path d="M3.55469 18.6484H16.9297C17.7786 18.6484 18.4193 18.4323 18.8516 18C19.2839 17.5729 19.5 16.9427 19.5 16.1094V11.8828C19.5 11.4922 19.4688 11.1797 19.4062 10.9453C19.349 10.7109 19.2266 10.4714 19.0391 10.2266L16.5547 6.92969C16.2318 6.50781 15.9479 6.1875 15.7031 5.96875C15.4635 5.75 15.1979 5.60156 14.9062 5.52344C14.6146 5.44531 14.2318 5.40625 13.7578 5.40625H12.4141V6.69531H13.8203C14.0859 6.69531 14.3151 6.73438 14.5078 6.8125C14.7057 6.88542 14.901 7.05208 15.0938 7.3125L17.6719 10.7734C17.8021 10.9557 17.8464 11.0859 17.8047 11.1641C17.763 11.2422 17.6432 11.2812 17.4453 11.2812H12.7656C12.5365 11.2812 12.3698 11.349 12.2656 11.4844C12.1615 11.6198 12.1094 11.7708 12.1094 11.9375V11.9688C12.1094 12.276 12.0339 12.5755 11.8828 12.8672C11.7318 13.1589 11.5156 13.3984 11.2344 13.5859C10.9583 13.7734 10.6276 13.8672 10.2422 13.8672C9.86198 13.8672 9.53125 13.7734 9.25 13.5859C8.97396 13.3984 8.76042 13.1589 8.60938 12.8672C8.45833 12.5755 8.38281 12.276 8.38281 11.9688V11.9375C8.38281 11.7708 8.32812 11.6198 8.21875 11.4844C8.11458 11.349 7.94792 11.2812 7.71875 11.2812H3.0625C2.85417 11.2812 2.72917 11.2396 2.6875 11.1562C2.65104 11.0729 2.69792 10.9453 2.82812 10.7734L5.38281 7.33594C5.58594 7.07031 5.78385 6.89844 5.97656 6.82031C6.17448 6.73698 6.40625 6.69531 6.67188 6.69531H8.07812V5.40625H6.73438C6.26042 5.40625 5.875 5.44531 5.57812 5.52344C5.28646 5.60156 5.01823 5.7526 4.77344 5.97656C4.53385 6.19531 4.2526 6.52083 3.92969 6.95312L1.44531 10.2266C1.26302 10.4714 1.14062 10.7109 1.07812 10.9453C1.02083 11.1797 0.992188 11.4922 0.992188 11.8828V16.1094C0.992188 16.9479 1.20833 17.5807 1.64062 18.0078C2.07292 18.4349 2.71094 18.6484 3.55469 18.6484ZM10.2422 11.5859C10.4401 11.5859 10.612 11.5156 10.7578 11.375C10.9036 11.2344 10.9766 11.0677 10.9766 10.875V3.32812L10.9062 2.17188L11.3984 2.73438L12.4844 3.90625C12.6146 4.04688 12.7786 4.11719 12.9766 4.11719C13.1536 4.11719 13.3047 4.0599 13.4297 3.94531C13.5547 3.82552 13.6172 3.67708 13.6172 3.5C13.6172 3.32812 13.5495 3.17188 13.4141 3.03125L10.7969 0.507812C10.7031 0.414062 10.6094 0.348958 10.5156 0.3125C10.4271 0.276042 10.3359 0.257812 10.2422 0.257812C10.1484 0.257812 10.0573 0.276042 9.96875 0.3125C9.88021 0.348958 9.78906 0.414062 9.69531 0.507812L7.07031 3.03125C6.9349 3.17188 6.86719 3.32812 6.86719 3.5C6.86719 3.67708 6.92969 3.82552 7.05469 3.94531C7.17969 4.0599 7.33073 4.11719 7.50781 4.11719C7.71094 4.11719 7.875 4.04688 8 3.90625L9.09375 2.73438L9.57812 2.16406L9.52344 3.32812V10.875C9.52344 11.0677 9.59375 11.2344 9.73438 11.375C9.875 11.5156 10.0443 11.5859 10.2422 11.5859Z" fill="#7F7F7F"/>
</svg>
