<svg width="12" height="14" viewBox="0 0 12 14" fill="none" xmlns="http://www.w3.org/2000/svg">
                    <path d="M6.23926 0.693359C6.12988 0.693359 6.02507 0.716146 5.9248 0.761719C5.8291 0.807292 5.72656 0.875651 5.61719 0.966797L1.00293 4.69238C0.829753 4.83822 0.743164 5.0319 0.743164 5.27344C0.743164 5.42839 0.779622 5.5651 0.852539 5.68359C0.925456 5.80208 1.02116 5.89779 1.13965 5.9707C1.25814 6.03906 1.3903 6.07324 1.53613 6.07324C1.63639 6.07324 1.73438 6.05501 1.83008 6.01855C1.92578 5.97754 2.02148 5.91829 2.11719 5.84082L6.23926 2.51172L10.3613 5.84082C10.457 5.91829 10.5527 5.97754 10.6484 6.01855C10.7441 6.05501 10.8398 6.07324 10.9355 6.07324C11.0859 6.07324 11.2204 6.03906 11.3389 5.9707C11.4574 5.89779 11.5531 5.80208 11.626 5.68359C11.6989 5.5651 11.7354 5.42839 11.7354 5.27344C11.7354 5.0319 11.6488 4.83822 11.4756 4.69238L6.86133 0.959961C6.75195 0.873372 6.64714 0.807292 6.54688 0.761719C6.45117 0.716146 6.34863 0.693359 6.23926 0.693359ZM6.23926 13.3125C6.34863 13.3125 6.45117 13.2874 6.54688 13.2373C6.64714 13.1917 6.75195 13.1279 6.86133 13.0459L11.4756 9.31348C11.6488 9.16309 11.7354 8.9694 11.7354 8.73242C11.7354 8.57747 11.6989 8.44076 11.626 8.32227C11.5531 8.19922 11.4574 8.10352 11.3389 8.03516C11.2204 7.96224 11.0859 7.92578 10.9355 7.92578C10.8398 7.92578 10.7441 7.94629 10.6484 7.9873C10.5527 8.02376 10.457 8.08301 10.3613 8.16504L6.23926 11.4941L2.11719 8.16504C2.02148 8.08301 1.92578 8.02376 1.83008 7.9873C1.73438 7.94629 1.63639 7.92578 1.53613 7.92578C1.3903 7.92578 1.25814 7.96224 1.13965 8.03516C1.02116 8.10352 0.925456 8.19922 0.852539 8.32227C0.779622 8.44076 0.743164 8.57747 0.743164 8.73242C0.743164 8.9694 0.829753 9.16309 1.00293 9.31348L5.61719 13.0391C5.72656 13.1257 5.8291 13.1917 5.9248 13.2373C6.02507 13.2874 6.12988 13.3125 6.23926 13.3125Z" fill="#7F7F7F"></path>
                </svg>