<svg width="17" height="17" viewBox="0 0 17 17" fill="none" xmlns="http://www.w3.org/2000/svg">
<path d="M8.46875 16.4297C9.57292 16.4297 10.612 16.2188 11.5859 15.7969C12.5599 15.3802 13.4193 14.7995 14.1641 14.0547C14.9089 13.3099 15.4922 12.4505 15.9141 11.4766C16.3359 10.5026 16.5469 9.46354 16.5469 8.35938C16.5469 7.25521 16.3359 6.21615 15.9141 5.24219C15.4922 4.26823 14.9089 3.41146 14.1641 2.67188C13.4193 1.92708 12.5599 1.34375 11.5859 0.921875C10.612 0.5 9.57031 0.289062 8.46094 0.289062C7.35677 0.289062 6.31771 0.5 5.34375 0.921875C4.375 1.34375 3.51823 1.92708 2.77344 2.67188C2.03385 3.41146 1.45312 4.26823 1.03125 5.24219C0.609375 6.21615 0.398438 7.25521 0.398438 8.35938C0.398438 9.46354 0.609375 10.5026 1.03125 11.4766C1.45312 12.4505 2.03385 13.3099 2.77344 14.0547C3.51823 14.7995 4.3776 15.3802 5.35156 15.7969C6.32552 16.2188 7.36458 16.4297 8.46875 16.4297ZM8.46875 14.8359C7.57292 14.8359 6.73177 14.6693 5.94531 14.3359C5.16406 14.0026 4.47656 13.5391 3.88281 12.9453C3.29427 12.3516 2.83333 11.6641 2.5 10.8828C2.16667 10.1016 2 9.26042 2 8.35938C2 7.46354 2.16667 6.625 2.5 5.84375C2.83333 5.05729 3.29427 4.36719 3.88281 3.77344C4.47135 3.17969 5.15625 2.71615 5.9375 2.38281C6.72396 2.04948 7.5651 1.88281 8.46094 1.88281C9.36198 1.88281 10.2031 2.04948 10.9844 2.38281C11.7656 2.71615 12.4531 3.17969 13.0469 3.77344C13.6458 4.36719 14.112 5.05729 14.4453 5.84375C14.7786 6.625 14.9453 7.46354 14.9453 8.35938C14.9453 9.26042 14.7786 10.1016 14.4453 10.8828C14.112 11.6641 13.6484 12.3516 13.0547 12.9453C12.4661 13.5391 11.7786 14.0026 10.9922 14.3359C10.2109 14.6693 9.36979 14.8359 8.46875 14.8359ZM8.29688 9.91406C8.51042 9.91406 8.67969 9.85938 8.80469 9.75C8.9349 9.64062 9.00521 9.50781 9.01562 9.35156C9.02083 9.33594 9.02344 9.32031 9.02344 9.30469C9.02344 9.28385 9.02344 9.26823 9.02344 9.25781C9.03385 9.05469 9.10677 8.8776 9.24219 8.72656C9.3776 8.57552 9.57552 8.41667 9.83594 8.25C10.2161 7.99479 10.5208 7.73438 10.75 7.46875C10.9844 7.20312 11.1016 6.84115 11.1016 6.38281C11.1016 5.95052 10.9844 5.58333 10.75 5.28125C10.5156 4.97917 10.2031 4.7474 9.8125 4.58594C9.42708 4.42448 9.00521 4.34375 8.54688 4.34375C7.875 4.34375 7.32031 4.47656 6.88281 4.74219C6.45052 5.00781 6.17448 5.32292 6.05469 5.6875C6.02865 5.75521 6.00781 5.82292 5.99219 5.89062C5.98177 5.95312 5.97656 6.02083 5.97656 6.09375C5.97656 6.28125 6.03906 6.42969 6.16406 6.53906C6.28906 6.64844 6.43229 6.70312 6.59375 6.70312C6.73438 6.70312 6.85417 6.67448 6.95312 6.61719C7.05729 6.5599 7.14583 6.48177 7.21875 6.38281L7.34375 6.21875C7.43229 6.07812 7.53125 5.96094 7.64062 5.86719C7.75521 5.76823 7.8776 5.69271 8.00781 5.64062C8.14323 5.58854 8.28906 5.5625 8.44531 5.5625C8.76302 5.5625 9.01823 5.64844 9.21094 5.82031C9.40885 5.98698 9.50781 6.20312 9.50781 6.46875C9.50781 6.71354 9.42448 6.91667 9.25781 7.07812C9.09635 7.23958 8.84896 7.4349 8.51562 7.66406C8.23438 7.85677 8.0026 8.0651 7.82031 8.28906C7.64323 8.51302 7.55469 8.80469 7.55469 9.16406C7.55469 9.17448 7.55469 9.1875 7.55469 9.20312C7.55469 9.21875 7.55469 9.23438 7.55469 9.25C7.55469 9.69271 7.80208 9.91406 8.29688 9.91406ZM8.28125 12.3125C8.53646 12.3125 8.7526 12.2318 8.92969 12.0703C9.10677 11.9089 9.19531 11.7031 9.19531 11.4531C9.19531 11.2031 9.10677 10.9974 8.92969 10.8359C8.7526 10.6745 8.53646 10.5938 8.28125 10.5938C8.02604 10.5938 7.8099 10.6771 7.63281 10.8438C7.45573 11.0052 7.36719 11.2083 7.36719 11.4531C7.36719 11.6979 7.45573 11.9036 7.63281 12.0703C7.8151 12.2318 8.03125 12.3125 8.28125 12.3125Z" fill="#7F7F7F"/>
</svg>
