<svg width="16" height="19" viewBox="0 0 16 20" fill="none" xmlns="http://www.w3.org/2000/svg">
<path d="M4.20312 18.1953H11.6016C12.1328 18.1953 12.5469 18.0547 12.8438 17.7734C13.1458 17.4974 13.3099 17.0964 13.3359 16.5703L13.8281 5.27344H14.9141C15.1068 5.27344 15.2708 5.20573 15.4062 5.07031C15.5417 4.9349 15.6094 4.77083 15.6094 4.57812C15.6094 4.38542 15.5417 4.22396 15.4062 4.09375C15.2708 3.96354 15.1068 3.89844 14.9141 3.89844H0.890625C0.697917 3.89844 0.533854 3.96615 0.398438 4.10156C0.263021 4.23177 0.195312 4.39062 0.195312 4.57812C0.195312 4.77083 0.263021 4.9349 0.398438 5.07031C0.533854 5.20573 0.697917 5.27344 0.890625 5.27344H1.98438L2.47656 16.5703C2.5026 17.0964 2.66406 17.4974 2.96094 17.7734C3.25781 18.0547 3.67188 18.1953 4.20312 18.1953ZM5.39844 15.8047C5.2474 15.8047 5.11979 15.7604 5.01562 15.6719C4.91667 15.5781 4.86719 15.4531 4.86719 15.2969L4.625 6.98438C4.625 6.82812 4.67188 6.70312 4.76562 6.60938C4.86458 6.51562 4.9974 6.46875 5.16406 6.46875C5.3151 6.46875 5.4401 6.51562 5.53906 6.60938C5.64323 6.70312 5.69792 6.82552 5.70312 6.97656L5.9375 15.2891C5.94271 15.4453 5.89583 15.5703 5.79688 15.6641C5.69792 15.7578 5.5651 15.8047 5.39844 15.8047ZM7.90625 15.8047C7.73958 15.8047 7.60417 15.7578 7.5 15.6641C7.40104 15.5703 7.35156 15.4479 7.35156 15.2969V6.97656C7.35156 6.82552 7.40104 6.70312 7.5 6.60938C7.60417 6.51562 7.73958 6.46875 7.90625 6.46875C8.06771 6.46875 8.19792 6.51562 8.29688 6.60938C8.40104 6.70312 8.45312 6.82552 8.45312 6.97656V15.2969C8.45312 15.4479 8.40104 15.5703 8.29688 15.6641C8.19792 15.7578 8.06771 15.8047 7.90625 15.8047ZM10.4062 15.8047C10.2396 15.8047 10.1068 15.7578 10.0078 15.6641C9.90885 15.5703 9.86198 15.4453 9.86719 15.2891L10.1016 6.97656C10.1068 6.82552 10.1589 6.70312 10.2578 6.60938C10.362 6.51562 10.4896 6.46875 10.6406 6.46875C10.8073 6.46875 10.9375 6.51562 11.0312 6.60938C11.1302 6.70312 11.1797 6.82812 11.1797 6.98438L10.9375 15.2969C10.9375 15.4531 10.8854 15.5781 10.7812 15.6719C10.6823 15.7604 10.5573 15.8047 10.4062 15.8047ZM4.27344 4.17188H5.88281V2.79688C5.88281 2.61979 5.9375 2.47917 6.04688 2.375C6.16146 2.26562 6.31771 2.21094 6.51562 2.21094H9.28125C9.47917 2.21094 9.63281 2.26562 9.74219 2.375C9.85677 2.47917 9.91406 2.61979 9.91406 2.79688V4.17188H11.5234V2.72656C11.5234 2.10677 11.3333 1.6224 10.9531 1.27344C10.5729 0.919271 10.0469 0.742188 9.375 0.742188H6.41406C5.74219 0.742188 5.21615 0.919271 4.83594 1.27344C4.46094 1.6224 4.27344 2.10677 4.27344 2.72656V4.17188Z" fill="#7F7F7F"/>
</svg>